<svg width="197" height="28" viewBox="0 0 197 28" fill="none" xmlns="http://www.w3.org/2000/svg">
<path d="M8.98242 27L0.492188 1.63477H6.36328L12.1641 21.5684H12.2695L18.0527 1.63477H23.9414L15.4512 27H8.98242ZM25.9629 27V8.15625H31.0957V27H25.9629ZM28.5293 5.73047C27.7559 5.73047 27.1055 5.4668 26.5781 4.93945C26.0508 4.41211 25.7871 3.78516 25.7871 3.05859C25.7871 2.32031 26.0508 1.69336 26.5781 1.17773C27.1055 0.650391 27.7559 0.386719 28.5293 0.386719C29.3027 0.386719 29.9531 0.650391 30.4805 1.17773C31.0078 1.69336 31.2715 2.32031 31.2715 3.05859C31.2715 3.78516 31.0078 4.41211 30.4805 4.93945C29.9531 5.4668 29.3027 5.73047 28.5293 5.73047ZM42.293 27.3867C40.5586 27.3867 39.082 27.1348 37.8633 26.6309C36.6445 26.127 35.6895 25.4297 34.998 24.5391C34.3184 23.6367 33.9082 22.5938 33.7676 21.4102L33.75 21.252H38.7598L38.7949 21.4102C38.959 22.1484 39.3281 22.7227 39.9023 23.1328C40.4766 23.543 41.2734 23.748 42.293 23.748C42.9492 23.748 43.5059 23.6719 43.9629 23.5195C44.4199 23.3555 44.7715 23.127 45.0176 22.834C45.2754 22.541 45.4043 22.1895 45.4043 21.7793V21.7617C45.4043 21.2578 45.2227 20.8535 44.8594 20.5488C44.4961 20.2441 43.8516 19.9863 42.9258 19.7754L39.7266 19.1074C37.8984 18.7207 36.5215 18.0762 35.5957 17.1738C34.6816 16.2598 34.2246 15.0996 34.2246 13.6934V13.6758C34.2246 12.4688 34.5469 11.4258 35.1914 10.5469C35.8359 9.66797 36.75 8.98828 37.9336 8.50781C39.1289 8.01562 40.5234 7.76953 42.1172 7.76953C43.7812 7.76953 45.1934 8.03906 46.3535 8.57812C47.5254 9.10547 48.4219 9.82031 49.043 10.7227C49.6758 11.625 50.0098 12.627 50.0449 13.7285V13.9043H45.3164L45.2988 13.7637C45.2168 13.084 44.9004 12.5215 44.3496 12.0762C43.8105 11.6191 43.0664 11.3906 42.1172 11.3906C41.5312 11.3906 41.0215 11.4727 40.5879 11.6367C40.1543 11.8008 39.8203 12.0352 39.5859 12.3398C39.3516 12.6328 39.2344 12.9844 39.2344 13.3945V13.4121C39.2344 13.8926 39.4219 14.2969 39.7969 14.625C40.1719 14.9531 40.834 15.2168 41.7832 15.416L44.9824 16.1016C46.9629 16.5117 48.3809 17.127 49.2363 17.9473C50.1035 18.7676 50.5371 19.8691 50.5371 21.252V21.2695C50.5371 22.5 50.1855 23.5723 49.4824 24.4863C48.7793 25.4004 47.8066 26.1152 46.5645 26.6309C45.334 27.1348 43.9102 27.3867 42.293 27.3867ZM53.1738 27V8.15625H58.3066V27H53.1738ZM55.7402 5.73047C54.9668 5.73047 54.3164 5.4668 53.7891 4.93945C53.2617 4.41211 52.998 3.78516 52.998 3.05859C52.998 2.32031 53.2617 1.69336 53.7891 1.17773C54.3164 0.650391 54.9668 0.386719 55.7402 0.386719C56.5137 0.386719 57.1641 0.650391 57.6914 1.17773C58.2188 1.69336 58.4824 2.32031 58.4824 3.05859C58.4824 3.78516 58.2188 4.41211 57.6914 4.93945C57.1641 5.4668 56.5137 5.73047 55.7402 5.73047ZM70.4004 27.3867C68.4902 27.3867 66.8379 26.9941 65.4434 26.209C64.0488 25.4238 62.9707 24.2988 62.209 22.834C61.4473 21.3691 61.0664 19.6172 61.0664 17.5781V17.543C61.0664 15.5156 61.4531 13.7754 62.2266 12.3223C63 10.8574 64.084 9.73242 65.4785 8.94727C66.873 8.16211 68.5078 7.76953 70.3828 7.76953C72.2695 7.76953 73.9102 8.16211 75.3047 8.94727C76.7109 9.7207 77.8008 10.8398 78.5742 12.3047C79.3477 13.7578 79.7344 15.5039 79.7344 17.543V17.5781C79.7344 19.6289 79.3477 21.3867 78.5742 22.8516C77.8125 24.3164 76.7344 25.4414 75.3398 26.2266C73.9453 27 72.2988 27.3867 70.4004 27.3867ZM70.418 23.3613C71.25 23.3613 71.9707 23.1387 72.5801 22.6934C73.2012 22.2363 73.6758 21.5801 74.0039 20.7246C74.3438 19.8574 74.5137 18.8086 74.5137 17.5781V17.543C74.5137 16.3242 74.3438 15.2871 74.0039 14.4316C73.6641 13.5762 73.1836 12.9258 72.5625 12.4805C71.9414 12.0234 71.2148 11.7949 70.3828 11.7949C69.5625 11.7949 68.8418 12.0234 68.2207 12.4805C67.6113 12.9258 67.1367 13.5762 66.7969 14.4316C66.457 15.2871 66.2871 16.3242 66.2871 17.543V17.5781C66.2871 18.8086 66.4512 19.8574 66.7793 20.7246C67.1191 21.5801 67.5996 22.2363 68.2207 22.6934C68.8418 23.1387 69.5742 23.3613 70.418 23.3613ZM82.3887 27V8.15625H87.5215V11.25H87.627C88.1191 10.1719 88.8457 9.32227 89.8066 8.70117C90.7676 8.08008 91.957 7.76953 93.375 7.76953C95.4492 7.76953 97.0488 8.39648 98.1738 9.65039C99.3105 10.8926 99.8789 12.6211 99.8789 14.8359V27H94.7461V15.8906C94.7461 14.6602 94.4531 13.7109 93.8672 13.043C93.293 12.3633 92.4316 12.0234 91.2832 12.0234C90.5215 12.0234 89.8594 12.1992 89.2969 12.5508C88.7344 12.8906 88.2949 13.3711 87.9785 13.9922C87.6738 14.6133 87.5215 15.3398 87.5215 16.1719V27H82.3887ZM114.855 27.4395C112.383 27.4395 110.238 26.9121 108.422 25.8574C106.617 24.8027 105.223 23.2969 104.238 21.3398C103.266 19.3711 102.779 17.0273 102.779 14.3086V14.291C102.779 11.5605 103.271 9.22266 104.256 7.27734C105.24 5.32031 106.635 3.82031 108.439 2.77734C110.244 1.72266 112.383 1.19531 114.855 1.19531C116.906 1.19531 118.734 1.59375 120.34 2.39062C121.945 3.1875 123.234 4.2832 124.207 5.67773C125.18 7.06055 125.748 8.6543 125.912 10.459L125.93 10.6172H120.762L120.691 10.3184C120.492 9.38086 120.135 8.56641 119.619 7.875C119.104 7.18359 118.441 6.65039 117.633 6.27539C116.836 5.88867 115.91 5.69531 114.855 5.69531C113.496 5.69531 112.318 6.04102 111.322 6.73242C110.326 7.42383 109.553 8.41406 109.002 9.70312C108.463 10.9805 108.193 12.5039 108.193 14.2734V14.291C108.193 16.0723 108.463 17.6133 109.002 18.9141C109.553 20.2031 110.326 21.1992 111.322 21.9023C112.33 22.5938 113.508 22.9395 114.855 22.9395C115.875 22.9395 116.783 22.752 117.58 22.377C118.389 22.002 119.062 21.4629 119.602 20.7598C120.141 20.0449 120.521 19.1836 120.744 18.1758L120.779 18H125.947L125.93 18.1934C125.766 19.9863 125.191 21.5801 124.207 22.9746C123.234 24.3691 121.945 25.4648 120.34 26.2617C118.734 27.0469 116.906 27.4395 114.855 27.4395ZM128.918 27V1.63477H134.051V27H128.918ZM146.162 27.3867C144.252 27.3867 142.6 26.9941 141.205 26.209C139.811 25.4238 138.732 24.2988 137.971 22.834C137.209 21.3691 136.828 19.6172 136.828 17.5781V17.543C136.828 15.5156 137.215 13.7754 137.988 12.3223C138.762 10.8574 139.846 9.73242 141.24 8.94727C142.635 8.16211 144.27 7.76953 146.145 7.76953C148.031 7.76953 149.672 8.16211 151.066 8.94727C152.473 9.7207 153.562 10.8398 154.336 12.3047C155.109 13.7578 155.496 15.5039 155.496 17.543V17.5781C155.496 19.6289 155.109 21.3867 154.336 22.8516C153.574 24.3164 152.496 25.4414 151.102 26.2266C149.707 27 148.061 27.3867 146.162 27.3867ZM146.18 23.3613C147.012 23.3613 147.732 23.1387 148.342 22.6934C148.963 22.2363 149.438 21.5801 149.766 20.7246C150.105 19.8574 150.275 18.8086 150.275 17.5781V17.543C150.275 16.3242 150.105 15.2871 149.766 14.4316C149.426 13.5762 148.945 12.9258 148.324 12.4805C147.703 12.0234 146.977 11.7949 146.145 11.7949C145.324 11.7949 144.604 12.0234 143.982 12.4805C143.373 12.9258 142.898 13.5762 142.559 14.4316C142.219 15.2871 142.049 16.3242 142.049 17.543V17.5781C142.049 18.8086 142.213 19.8574 142.541 20.7246C142.881 21.5801 143.361 22.2363 143.982 22.6934C144.604 23.1387 145.336 23.3613 146.18 23.3613ZM164.566 27.3867C163.184 27.3867 162.006 27.1055 161.033 26.543C160.072 25.9688 159.334 25.1543 158.818 24.0996C158.314 23.0449 158.062 21.7852 158.062 20.3203V8.15625H163.195V19.248C163.195 20.4785 163.482 21.4336 164.057 22.1133C164.643 22.793 165.51 23.1328 166.658 23.1328C167.432 23.1328 168.094 22.957 168.645 22.6055C169.207 22.2539 169.641 21.7676 169.945 21.1465C170.262 20.5137 170.42 19.793 170.42 18.9844V8.15625H175.553V27H170.42V23.8887H170.314C169.834 24.9785 169.113 25.834 168.152 26.4551C167.191 27.0762 165.996 27.3867 164.566 27.3867ZM185.871 27.3867C184.289 27.3867 182.924 26.9941 181.775 26.209C180.627 25.4238 179.742 24.2988 179.121 22.834C178.512 21.3691 178.207 19.6172 178.207 17.5781V17.5605C178.207 15.5098 178.518 13.7578 179.139 12.3047C179.76 10.8398 180.639 9.7207 181.775 8.94727C182.924 8.16211 184.289 7.76953 185.871 7.76953C187.207 7.76953 188.379 8.09766 189.387 8.75391C190.395 9.39844 191.156 10.2891 191.672 11.4258H191.777V1.63477H196.91V27H191.777V23.7832H191.672C191.168 24.9082 190.412 25.793 189.404 26.4375C188.408 27.0703 187.23 27.3867 185.871 27.3867ZM187.594 23.1328C188.426 23.1328 189.158 22.9102 189.791 22.4648C190.424 22.0078 190.916 21.3633 191.268 20.5312C191.619 19.6992 191.795 18.7148 191.795 17.5781V17.5605C191.795 16.4238 191.613 15.4453 191.25 14.625C190.898 13.793 190.406 13.1543 189.773 12.709C189.152 12.252 188.426 12.0234 187.594 12.0234C186.738 12.0234 186 12.2461 185.379 12.6914C184.758 13.1367 184.277 13.7754 183.938 14.6074C183.598 15.4277 183.428 16.4121 183.428 17.5605V17.5781C183.428 18.7148 183.592 19.6992 183.92 20.5312C184.26 21.3633 184.74 22.0078 185.361 22.4648C185.994 22.9102 186.738 23.1328 187.594 23.1328Z" fill="#336AFF"/>
</svg>
