<svg width="48" height="40" viewBox="0 0 48 40" fill="none" xmlns="http://www.w3.org/2000/svg">
<path d="M0.5625 6.71875V37.1875C0.56312 37.8089 0.81025 38.4047 1.24965 38.8441C1.68906 39.2835 2.28484 39.5306 2.90625 39.5312H45.0938C45.7152 39.5306 46.3109 39.2835 46.7503 38.8441C47.1898 38.4047 47.4369 37.8089 47.4375 37.1875V6.71875H0.5625Z" fill="#EEEEEE"/>
<path d="M45.0938 0.46875H2.90625C2.28484 0.46937 1.68906 0.7165 1.24965 1.1559C0.81025 1.59531 0.56312 2.19109 0.5625 2.8125V8.28125H47.4375V2.8125C47.4369 2.19109 47.1898 1.59531 46.7503 1.1559C46.3109 0.7165 45.7152 0.46937 45.0938 0.46875Z" fill="#2196F3"/>
<path d="M41.9688 5.9375C42.8317 5.9375 43.5312 5.23795 43.5312 4.375C43.5312 3.51206 42.8317 2.8125 41.9688 2.8125C41.1058 2.8125 40.4062 3.51206 40.4062 4.375C40.4062 5.23795 41.1058 5.9375 41.9688 5.9375Z" fill="#F44336"/>
<path d="M38.0625 5.9375C38.9254 5.9375 39.625 5.23795 39.625 4.375C39.625 3.51206 38.9254 2.8125 38.0625 2.8125C37.1996 2.8125 36.5 3.51206 36.5 4.375C36.5 5.23795 37.1996 5.9375 38.0625 5.9375Z" fill="#FF9800"/>
<path d="M31.0312 5.15625H6.03125C5.82405 5.15625 5.62534 5.07394 5.47882 4.92743C5.33231 4.78091 5.25 4.5822 5.25 4.375C5.25 4.1678 5.33231 3.96909 5.47882 3.82257C5.62534 3.67606 5.82405 3.59375 6.03125 3.59375H31.0312C31.2385 3.59375 31.4372 3.67606 31.5837 3.82257C31.7302 3.96909 31.8125 4.1678 31.8125 4.375C31.8125 4.5822 31.7302 4.78091 31.5837 4.92743C31.4372 5.07394 31.2385 5.15625 31.0312 5.15625Z" fill="#EEEEEE"/>
<path d="M9.15625 10.625H0.5625V37.1875H9.15625C9.77785 37.1875 10.374 36.9406 10.8135 36.501C11.2531 36.0615 11.5 35.4654 11.5 34.8438V12.9688C11.5 12.3471 11.2531 11.751 10.8135 11.3115C10.374 10.8719 9.77785 10.625 9.15625 10.625Z" fill="#2196F3"/>
<path d="M8.375 24.6875H3.6875C3.4803 24.6875 3.28159 24.6052 3.13507 24.4587C2.98856 24.3122 2.90625 24.1135 2.90625 23.9062C2.90625 23.699 2.98856 23.5003 3.13507 23.3538C3.28159 23.2073 3.4803 23.125 3.6875 23.125H8.375C8.5822 23.125 8.78091 23.2073 8.92743 23.3538C9.07394 23.5003 9.15625 23.699 9.15625 23.9062C9.15625 24.1135 9.07394 24.3122 8.92743 24.4587C8.78091 24.6052 8.5822 24.6875 8.375 24.6875ZM8.375 20.7812H3.6875C3.4803 20.7812 3.28159 20.6989 3.13507 20.5524C2.98856 20.4059 2.90625 20.2072 2.90625 20C2.90625 19.7928 2.98856 19.5941 3.13507 19.4476C3.28159 19.3011 3.4803 19.2188 3.6875 19.2188H8.375C8.5822 19.2188 8.78091 19.3011 8.92743 19.4476C9.07394 19.5941 9.15625 19.7928 9.15625 20C9.15625 20.2072 9.07394 20.4059 8.92743 20.5524C8.78091 20.6989 8.5822 20.7812 8.375 20.7812ZM8.375 16.875H3.6875C3.4803 16.875 3.28159 16.7927 3.13507 16.6462C2.98856 16.4997 2.90625 16.301 2.90625 16.0938C2.90625 15.8865 2.98856 15.6878 3.13507 15.5413C3.28159 15.3948 3.4803 15.3125 3.6875 15.3125H8.375C8.5822 15.3125 8.78091 15.3948 8.92743 15.5413C9.07394 15.6878 9.15625 15.8865 9.15625 16.0938C9.15625 16.301 9.07394 16.4997 8.92743 16.6462C8.78091 16.7927 8.5822 16.875 8.375 16.875ZM8.375 28.5938H3.6875C3.4803 28.5938 3.28159 28.5114 3.13507 28.3649C2.98856 28.2184 2.90625 28.0197 2.90625 27.8125C2.90625 27.6053 2.98856 27.4066 3.13507 27.2601C3.28159 27.1136 3.4803 27.0312 3.6875 27.0312H8.375C8.5822 27.0312 8.78091 27.1136 8.92743 27.2601C9.07394 27.4066 9.15625 27.6053 9.15625 27.8125C9.15625 28.0197 9.07394 28.2184 8.92743 28.3649C8.78091 28.5114 8.5822 28.5938 8.375 28.5938ZM8.375 32.5H3.6875C3.4803 32.5 3.28159 32.4177 3.13507 32.2712C2.98856 32.1247 2.90625 31.926 2.90625 31.7188C2.90625 31.5115 2.98856 31.3128 3.13507 31.1663C3.28159 31.0198 3.4803 30.9375 3.6875 30.9375H8.375C8.5822 30.9375 8.78091 31.0198 8.92743 31.1663C9.07394 31.3128 9.15625 31.5115 9.15625 31.7188C9.15625 31.926 9.07394 32.1247 8.92743 32.2712C8.78091 32.4177 8.5822 32.5 8.375 32.5Z" fill="#EEEEEE"/>
<path d="M25.5625 10.625H16.1875C14.8931 10.625 13.8438 11.6743 13.8438 12.9688V20.7812C13.8438 22.0757 14.8931 23.125 16.1875 23.125H25.5625C26.8569 23.125 27.9062 22.0757 27.9062 20.7812V12.9688C27.9062 11.6743 26.8569 10.625 25.5625 10.625Z" fill="#689F38"/>
<path d="M41.1875 10.625H31.8125C30.5181 10.625 29.4688 11.6743 29.4688 12.9688V20.7812C29.4688 22.0757 30.5181 23.125 31.8125 23.125H41.1875C42.4819 23.125 43.5312 22.0757 43.5312 20.7812V12.9688C43.5312 11.6743 42.4819 10.625 41.1875 10.625Z" fill="#FF9800"/>
<path d="M25.5625 24.6875H16.1875C14.8931 24.6875 13.8438 25.7368 13.8438 27.0312V34.8438C13.8438 36.1382 14.8931 37.1875 16.1875 37.1875H25.5625C26.8569 37.1875 27.9062 36.1382 27.9062 34.8438V27.0312C27.9062 25.7368 26.8569 24.6875 25.5625 24.6875Z" fill="#FF9800"/>
<path d="M41.1875 24.6875H31.8125C30.5181 24.6875 29.4688 25.7368 29.4688 27.0312V34.8438C29.4688 36.1382 30.5181 37.1875 31.8125 37.1875H41.1875C42.4819 37.1875 43.5312 36.1382 43.5312 34.8438V27.0312C43.5312 25.7368 42.4819 24.6875 41.1875 24.6875Z" fill="#689F38"/>
</svg>
