<svg width="50" height="50" viewBox="0 0 50 50" fill="none" xmlns="http://www.w3.org/2000/svg">
<mask id="mask0_47_1410" style="mask-type:luminance" maskUnits="userSpaceOnUse" x="0" y="0" width="50" height="50">
<path d="M0 0.000144958H49.9999V50H0V0.000144958Z" fill="white"/>
</mask>
<g mask="url(#mask0_47_1410)">
<path d="M32.1631 2.65206H17.8367C16.0917 2.65206 14.3774 3.11139 12.8662 3.98387C11.355 4.85636 10.1001 6.11126 9.22753 7.62246L2.06437 20.0295C1.19187 21.5408 0.732544 23.255 0.732544 25C0.732544 26.745 1.19187 28.4593 2.06437 29.9705L9.22753 42.3776C10.1 43.8888 11.355 45.1438 12.8662 46.0162C14.3774 46.8887 16.0917 47.348 17.8367 47.348H32.1631C33.9081 47.348 35.6224 46.8887 37.1336 46.0162C38.6448 45.1438 39.8997 43.8888 40.7723 42.3776L47.9354 29.9705C48.8079 28.4593 49.2672 26.745 49.2672 25C49.2672 23.255 48.8079 21.5408 47.9354 20.0295L40.7723 7.62246C39.8997 6.11126 38.6448 4.85636 37.1336 3.98387C35.6224 3.11139 33.9081 2.65206 32.1631 2.65206Z" fill="#F9F7F8"/>
<path d="M20.829 47.3475H17.8369C14.2851 47.3475 11.0039 45.4529 9.22752 42.3778L2.06445 29.9706C1.19214 28.4592 0.73291 26.7449 0.73291 24.9999C0.73291 23.2549 1.19214 21.5406 2.06445 20.0292L9.22752 7.62201C11.0039 4.54682 14.2851 2.65229 17.8369 2.65229H20.829C17.2773 2.65229 13.9961 4.54682 12.2197 7.62201L5.05663 20.0292C4.18432 21.5406 3.72509 23.2549 3.72509 24.9999C3.72509 26.7449 4.18432 28.4592 5.05663 29.9706L12.2197 42.3778C13.9961 45.4529 17.2773 47.3475 20.829 47.3475Z" fill="#DEDBEE"/>
<path d="M17.8366 43.4418C15.6875 43.4418 13.6849 42.2857 12.6104 40.4246L5.44719 28.0175C4.37258 26.1562 4.37258 23.8438 5.44719 21.9827L12.6104 9.57563C13.6849 7.7145 15.6875 6.55835 17.8366 6.55835H32.163C34.3121 6.55835 36.3148 7.7145 37.3893 9.57563L44.5524 21.9827C45.627 23.8438 45.627 26.1562 44.5524 28.0175L37.3893 40.4246C36.3148 42.2857 34.3121 43.4418 32.163 43.4418H17.8366Z" fill="#FE646F"/>
<path d="M20.3309 43.4416H17.8368C15.6883 43.4416 13.6854 42.2853 12.6112 40.425L5.44714 28.0178C4.37293 26.1565 4.37293 23.844 5.44714 21.9827L12.6112 9.57548C13.6854 7.71513 15.6883 6.55889 17.8368 6.55889H20.3309C18.1815 6.55889 16.1795 7.71513 15.1043 9.57548L7.94127 21.9827C6.86706 23.844 6.86706 26.1565 7.94127 28.0178L15.1043 40.425C16.1795 42.2853 18.1815 43.4416 20.3309 43.4416Z" fill="#FD4755"/>
<path d="M33.8136 15.3482C33.5048 15.3395 33.1976 15.394 32.9107 15.5084C32.6238 15.6228 32.3633 15.7947 32.1453 16.0135C31.9338 16.2242 31.766 16.4748 31.6517 16.7506C31.5374 17.0265 31.4788 17.3223 31.4793 17.6209V14.2088C31.4793 12.9533 30.4613 11.9354 29.2059 11.9354C27.9504 11.9354 26.9325 12.9533 26.9325 14.2088V13.1306C26.9325 11.8751 25.9152 10.8571 24.6597 10.8571C23.4037 10.8571 22.3863 11.8751 22.3863 13.1306V14.4004C22.3868 14.1018 22.3282 13.806 22.2139 13.5302C22.0996 13.2543 21.9319 13.0038 21.7204 12.793C21.5095 12.5816 21.259 12.4139 20.9831 12.2996C20.7072 12.1853 20.4115 12.1266 20.1129 12.127C18.8574 12.127 17.8395 13.1449 17.8395 14.4004V26.8372L17.8396 29.3136L15.4225 26.8965C14.3826 25.8567 12.6971 25.8567 11.6572 26.8965C11.4095 27.1436 11.2131 27.4371 11.0792 27.7603C10.9453 28.0834 10.8765 28.4298 10.8768 28.7796C10.8765 29.1295 10.9453 29.4759 11.0792 29.799C11.2131 30.1222 11.4095 30.4157 11.6572 30.6627L17.3378 36.3425C18.7051 37.7098 20.5129 38.3661 22.3035 38.3116H22.3059L22.3037 38.3113H29.2937C33.0119 38.3113 36.0262 35.2969 36.0262 31.5788V17.6577C36.0262 16.4197 35.0513 15.3806 33.8136 15.3482Z" fill="#FFDFCF"/>
<path d="M20.8861 12.2615C20.5723 12.3753 20.2874 12.5566 20.0514 12.7926C19.8398 13.0035 19.672 13.2542 19.5577 13.5301C19.4433 13.8061 19.3847 14.102 19.3851 14.4008V29.7217C19.079 29.7672 18.7795 29.8496 18.4933 29.9672L17.84 29.3139V14.4008C17.8394 14.1021 17.8979 13.8062 18.0121 13.5302C18.1262 13.2542 18.2939 13.0035 18.5053 12.7926C18.7162 12.5813 18.9668 12.4138 19.2426 12.2996C19.5184 12.1855 19.814 12.1269 20.1125 12.1272C20.3851 12.1272 20.6446 12.1743 20.8861 12.2615Z" fill="#FFCEBF"/>
<path d="M25.4333 10.9913C25.1195 11.1051 24.8346 11.2864 24.5986 11.5224C24.387 11.7333 24.2192 11.984 24.1049 12.26C23.9905 12.536 23.9319 12.8319 23.9323 13.1306L23.9322 23.1383C23.9321 23.8046 23.392 24.3447 22.7257 24.3447H22.3871L22.3872 13.1306C22.3866 12.8319 22.4451 12.5361 22.5593 12.2601C22.6735 11.9841 22.8411 11.7334 23.0525 11.5224C23.2634 11.3112 23.514 11.1437 23.7898 11.0295C24.0656 10.9153 24.3612 10.8567 24.6597 10.8571C24.9323 10.8571 25.1918 10.9041 25.4333 10.9913Z" fill="#FFCEBF"/>
<path d="M29.9787 12.0695C29.6649 12.1832 29.3799 12.3645 29.144 12.6005C28.9324 12.8114 28.7646 13.0621 28.6503 13.3381C28.5359 13.6141 28.4773 13.91 28.4777 14.2087L28.4776 23.1383C28.4775 23.8046 27.9374 24.3447 27.2709 24.3447H26.9324L26.9326 14.2087C26.932 13.91 26.9905 13.6142 27.1047 13.3382C27.2188 13.0622 27.3865 12.8115 27.5979 12.6005C27.8088 12.3893 28.0594 12.2218 28.3352 12.1076C28.611 11.9934 28.9066 11.9348 29.2051 11.9352C29.4777 11.9352 29.7371 11.9823 29.9787 12.0695Z" fill="#FFCEBF"/>
<path d="M34.5255 15.4816C34.2118 15.5953 33.9268 15.7766 33.6909 16.0126C33.4793 16.2235 33.3115 16.4742 33.1972 16.7502C33.0828 17.0262 33.0242 17.3221 33.0246 17.6208L33.0245 23.9728C33.0244 24.6391 32.4842 25.1792 31.8178 25.1792H31.4792L31.4794 17.6208C31.4789 17.3221 31.5373 17.0263 31.6515 16.7503C31.7657 16.4743 31.9333 16.2236 32.1448 16.0126C32.3557 15.8014 32.6062 15.6339 32.882 15.5197C33.1579 15.4055 33.4535 15.3469 33.752 15.3473C34.0246 15.3473 34.284 15.3944 34.5255 15.4816Z" fill="#FFCEBF"/>
<path d="M22.2508 38.3124C20.4773 38.3525 18.6917 37.6962 17.338 36.3425L11.6577 30.6622C11.41 30.4153 11.2135 30.1218 11.0796 29.7987C10.9456 29.4756 10.8768 29.1292 10.8772 28.7794C10.8768 28.4295 10.9456 28.083 11.0795 27.7597C11.2135 27.4365 11.4099 27.1429 11.6577 26.8957C12.4543 26.0992 13.6306 25.9138 14.6045 26.3386C14.2984 26.471 14.0203 26.6604 13.785 26.8967C13.5373 27.1436 13.3407 27.4371 13.2068 27.7602C13.0728 28.0833 13.004 28.4297 13.0043 28.7794C13.004 29.1292 13.0728 29.4756 13.2068 29.7987C13.3407 30.1219 13.5373 30.4153 13.785 30.6622L19.4653 36.3425C20.2718 37.1482 21.2318 37.8686 22.2508 38.3124Z" fill="#FFCEBF"/>
<path d="M48.5696 19.6632L41.4066 7.25598C39.5064 3.96468 35.9645 1.92006 32.1629 1.92006H17.8368C14.0353 1.92006 10.4934 3.96468 8.59319 7.25598L1.43012 19.6633C-0.469872 22.9551 -0.469872 27.045 1.43012 30.337L8.59319 42.7442C10.4934 46.0355 14.0353 48.0801 17.8368 48.0801H32.1629C35.4397 48.0801 38.4864 46.6094 40.5217 44.0452C40.5815 43.9699 40.6259 43.8835 40.6523 43.791C40.6787 43.6985 40.6867 43.6018 40.6757 43.5062C40.6647 43.4106 40.635 43.3182 40.5883 43.2341C40.5416 43.15 40.4787 43.076 40.4034 43.0162C40.3281 42.9564 40.2417 42.912 40.1492 42.8856C40.0567 42.8592 39.9599 42.8512 39.8644 42.8622C39.7688 42.8732 39.6764 42.9029 39.5923 42.9496C39.5082 42.9963 39.4341 43.0592 39.3743 43.1345C37.6185 45.3466 34.9901 46.6152 32.1629 46.6152H17.8368C14.5569 46.6152 11.5011 44.8513 9.86174 42.0117L2.69877 29.6046C1.05952 26.7644 1.05952 23.2357 2.69867 20.3956L9.86174 7.9884C11.5011 5.14886 14.5569 3.3849 17.8368 3.3849H32.1629C35.4428 3.3849 38.4987 5.14886 40.138 7.9884L47.301 20.3955C48.9402 23.2357 48.9402 26.7644 47.3011 29.6045L40.8704 40.7432C40.7733 40.9114 40.747 41.1113 40.7973 41.2989C40.8475 41.4866 40.9703 41.6465 41.1385 41.7437C41.3067 41.8408 41.5066 41.8671 41.6943 41.8168C41.8819 41.7665 42.0418 41.6438 42.139 41.4756L48.5696 30.3369C50.4696 27.045 50.4696 22.9551 48.5696 19.6632Z" fill="black"/>
<path d="M43.9183 27.6513L36.755 40.0583C35.811 41.6936 34.0514 42.7094 32.1631 42.7094H17.8367C15.9484 42.7094 14.1889 41.6936 13.2447 40.0583L6.08158 27.6513C5.13745 26.0159 5.13745 23.9843 6.08158 22.3489L13.2447 9.94183C14.1889 8.30658 15.9484 7.29077 17.8367 7.29077H32.1631C34.0514 7.29077 35.811 8.30658 36.755 9.94183L43.9183 22.3489C44.8624 23.9843 44.8624 26.0159 43.9183 27.6513ZM45.1868 21.6165L38.0237 9.20942C36.8187 7.12241 34.5731 5.82593 32.1631 5.82593H17.8367C15.4268 5.82593 13.1811 7.12241 11.9762 9.20942L4.81303 21.6165C3.60806 23.7036 3.60806 26.2966 4.81303 28.3837L11.9762 40.7908C13.1811 42.8778 15.4268 44.1743 17.8367 44.1743H32.1631C34.5731 44.1743 36.8187 42.8778 38.0237 40.7908L45.1868 28.3837C46.3918 26.2966 46.3918 23.7036 45.1868 21.6165Z" fill="black"/>
<path d="M33.833 14.6166C33.2633 14.6021 32.7012 14.7493 32.2117 15.041V14.2091C32.2117 12.5517 30.8633 11.2033 29.2059 11.2033C28.5409 11.2026 27.8946 11.4235 27.3692 11.8312C26.8837 10.8227 25.8518 10.1251 24.66 10.1251C23.4128 10.1251 22.3407 10.8887 21.8863 11.9728C21.3747 11.5974 20.7594 11.3947 20.1131 11.3947C18.4557 11.3947 17.1073 12.7431 17.1073 14.4005V16.6749C17.1073 16.8692 17.1844 17.0555 17.3218 17.1928C17.4592 17.3302 17.6454 17.4073 17.8397 17.4073C18.0339 17.4073 18.2202 17.3302 18.3576 17.1928C18.495 17.0555 18.5721 16.8692 18.5721 16.6749V14.4005C18.5721 13.5508 19.2634 12.8595 20.1131 12.8595C20.5246 12.8595 20.9116 13.0199 21.2027 13.311C21.3456 13.4532 21.459 13.6222 21.5365 13.8083C21.6139 13.9944 21.6538 14.194 21.6539 14.3956V24.3448C21.6539 24.5391 21.7311 24.7254 21.8685 24.8627C22.0058 25.0001 22.1921 25.0772 22.3864 25.0772C22.5806 25.0772 22.7669 25.0001 22.9043 24.8627C23.0416 24.7254 23.1188 24.5391 23.1188 24.3448L23.119 13.131C23.119 12.2813 23.8103 11.59 24.66 11.59C25.5092 11.59 26.2 12.2813 26.2 13.131L26.2001 24.3448C26.2001 24.5391 26.2773 24.7254 26.4146 24.8627C26.552 25.0001 26.7383 25.0772 26.9325 25.0772C27.1268 25.0772 27.3131 25.0001 27.4504 24.8627C27.5878 24.7254 27.665 24.5391 27.665 24.3448V14.2088L27.6649 14.208C27.6656 13.3588 28.3565 12.6681 29.2059 12.6681C30.0556 12.6681 30.7469 13.3594 30.7469 14.2091V25.1793C30.7469 25.3735 30.8241 25.5598 30.9614 25.6972C31.0988 25.8345 31.2851 25.9117 31.4793 25.9117C31.6736 25.9117 31.8599 25.8345 31.9972 25.6972C32.1346 25.5598 32.2117 25.3735 32.2117 25.1793V17.6202C32.2114 17.4178 32.2511 17.2173 32.3287 17.0304C32.4063 16.8434 32.5202 16.6737 32.6638 16.5311C32.9649 16.2292 33.3677 16.0698 33.7942 16.081C34.6211 16.1025 35.2938 16.8097 35.2938 17.6573V31.5792C35.2938 34.8876 32.6022 37.5792 29.2938 37.5792H22.3036C22.2961 37.5791 22.2886 37.5793 22.2812 37.5795C20.6097 37.6306 19.0381 37.0075 17.8556 35.8249L12.1755 30.1458C11.8103 29.78 11.6092 29.2947 11.6092 28.7794C11.6086 28.5258 11.6583 28.2745 11.7554 28.0402C11.8525 27.806 11.9951 27.5932 12.175 27.4144C12.9277 26.6619 14.1523 26.662 14.9048 27.4144L17.3218 29.8314C17.4242 29.9339 17.5547 30.0037 17.6968 30.032C17.8389 30.0602 17.9862 30.0457 18.12 29.9903C18.2539 29.9349 18.3683 29.841 18.4487 29.7205C18.5292 29.6001 18.5722 29.4584 18.5721 29.3136V19.6046C18.5721 19.4103 18.495 19.2241 18.3576 19.0867C18.2202 18.9493 18.0339 18.8722 17.8397 18.8722C17.6454 18.8722 17.4592 18.9493 17.3218 19.0867C17.1844 19.2241 17.1073 19.4103 17.1073 19.6046V27.5454L15.9406 26.3787C14.6169 25.0549 12.4629 25.055 11.1392 26.3787C10.4976 27.0202 10.1444 27.8728 10.1444 28.7794C10.1444 29.6854 10.4975 30.5383 11.1392 31.1811L16.8199 36.8607C18.2167 38.2576 20.1302 39.0472 22.101 39.0471C22.1719 39.0471 22.2433 39.046 22.3143 39.044H29.2938C33.4099 39.044 36.7586 35.6953 36.7586 31.5792V17.6573C36.7586 16.0227 35.4459 14.6586 33.833 14.6166Z" fill="black"/>
</g>
</svg>
