<svg width="185" height="213" viewBox="0 0 185 213" fill="none" xmlns="http://www.w3.org/2000/svg">
<path d="M184.376 81.0291C184.37 80.9631 184.357 80.8975 184.348 80.8323C184.337 80.7555 184.328 80.6792 184.314 80.6033C184.299 80.5286 184.278 80.4564 184.26 80.3833C184.243 80.3173 184.229 80.2509 184.209 80.1857C184.187 80.1135 184.16 80.045 184.135 79.9744C184.111 79.9092 184.09 79.8436 184.063 79.7792C184.037 79.714 184.004 79.6501 183.974 79.5865C183.943 79.5205 183.913 79.4532 183.878 79.3889C183.846 79.3278 183.808 79.2696 183.773 79.2102C183.735 79.1463 183.699 79.0811 183.657 79.0192C183.613 78.9536 183.564 78.8921 183.518 78.8289C183.478 78.7774 183.442 78.7241 183.4 78.673C183.309 78.5611 183.212 78.4547 183.111 78.3519C183.11 78.3511 183.109 78.3503 183.109 78.3495C183.107 78.3478 183.104 78.3449 183.101 78.3433C183.001 78.2426 182.896 78.1481 182.786 78.0581C182.736 78.0177 182.684 77.9826 182.633 77.9438C182.569 77.896 182.507 77.8465 182.44 77.8019C182.38 77.7615 182.317 77.7264 182.255 77.6893C182.193 77.6521 182.134 77.6137 182.07 77.5799C182.008 77.5465 181.944 77.5188 181.88 77.4887C181.814 77.4569 181.747 77.4235 181.678 77.395C181.618 77.3699 181.557 77.3501 181.495 77.3282C181.421 77.3014 181.348 77.2733 181.271 77.2498C181.211 77.2316 181.151 77.2189 181.09 77.2036C181.012 77.183 180.934 77.1615 180.854 77.1458C180.786 77.1322 180.717 77.1244 180.649 77.114C180.576 77.1037 180.503 77.0897 180.427 77.0823C180.31 77.0711 180.194 77.067 180.076 77.0649C180.049 77.0641 180.023 77.0604 179.996 77.0604H40.8371L173.327 34.4963C173.438 34.4612 173.544 34.4179 173.65 34.3745C173.676 34.3642 173.701 34.3564 173.727 34.3465C173.893 34.2743 174.052 34.1917 174.206 34.1022C174.243 34.0807 174.279 34.056 174.315 34.0337C174.436 33.9578 174.552 33.8781 174.663 33.7919C174.702 33.7618 174.74 33.7333 174.778 33.7024C174.916 33.5889 175.048 33.4696 175.171 33.3413C175.186 33.3252 175.199 33.3071 175.215 33.2897C175.324 33.1709 175.426 33.0463 175.52 32.9175C175.551 32.8763 175.58 32.8346 175.609 32.7929C175.713 32.6398 175.811 32.4834 175.896 32.32C175.896 32.32 175.897 32.3184 175.897 32.3176C175.899 32.313 175.901 32.3085 175.904 32.3031C175.967 32.1793 176.024 32.0522 176.076 31.9223C176.101 31.8591 176.12 31.796 176.141 31.7329C176.167 31.6598 176.193 31.5884 176.214 31.5138C176.235 31.4415 176.25 31.3685 176.267 31.2955C176.282 31.2286 176.3 31.1622 176.312 31.0945C176.325 31.0223 176.333 30.9501 176.342 30.8771C176.351 30.8073 176.363 30.7372 176.369 30.6662C176.375 30.5977 176.375 30.5292 176.377 30.4615C176.379 30.386 176.384 30.3101 176.383 30.2334C176.382 30.1682 176.375 30.1026 176.371 30.0365C176.366 29.959 176.363 29.8818 176.354 29.8038C176.346 29.7316 176.332 29.6602 176.32 29.588C176.308 29.5183 176.299 29.4489 176.285 29.3788C176.257 29.2534 176.223 29.1296 176.186 29.0066C176.18 28.9913 176.178 28.9757 176.173 28.9604L168.095 3.81712C167.739 2.7055 166.954 1.7812 165.916 1.24808C164.878 0.714137 163.67 0.615106 162.558 0.972032L137.435 9.04392C137.422 9.04846 137.409 9.05176 137.397 9.05589L103.9 19.8173C103.893 19.819 103.888 19.821 103.882 19.8227L70.4129 30.5763C70.384 30.5845 70.3547 30.5944 70.3262 30.6039L36.8631 41.3546C36.8511 41.3591 36.8396 41.3624 36.828 41.3657L3.32977 52.1284C3.18989 52.1734 3.05207 52.225 2.91673 52.2831C2.90187 52.2901 2.88784 52.2976 2.87175 52.3046C2.7558 52.3562 2.64233 52.4119 2.53092 52.4734C2.51193 52.4845 2.49419 52.4969 2.47562 52.5076C2.36999 52.5687 2.26518 52.6314 2.16491 52.7007C2.15212 52.7094 2.14015 52.7197 2.12736 52.7288C2.02338 52.8026 1.92063 52.8794 1.82284 52.9623C1.81583 52.9685 1.81046 52.9743 1.80345 52.9805C1.70235 53.0671 1.60332 53.1583 1.50883 53.2557C1.5014 53.2635 1.49562 53.271 1.48861 53.2792C1.39742 53.375 1.30911 53.4732 1.22535 53.5784C1.20637 53.6027 1.19028 53.6283 1.17212 53.6522C1.10362 53.7426 1.03513 53.8326 0.973646 53.9291C0.894421 54.0513 0.820559 54.1783 0.753713 54.3092C0.686454 54.4408 0.625796 54.5749 0.572154 54.7106C0.533367 54.8089 0.503245 54.9075 0.471885 55.0065C0.459918 55.0453 0.444651 55.082 0.433923 55.12C0.399262 55.2417 0.372441 55.3651 0.348508 55.488C0.344794 55.5041 0.340255 55.5215 0.337367 55.538C0.313847 55.6642 0.298993 55.7905 0.287439 55.9159C0.285789 55.932 0.282488 55.9485 0.28125 55.9638C0.272172 56.0831 0.269284 56.2027 0.269284 56.3216C0.269284 56.3467 0.26722 56.3715 0.267633 56.3954C0.269696 56.5056 0.278775 56.6145 0.28909 56.7239C0.291979 56.7581 0.292803 56.7924 0.296104 56.8258C0.308483 56.9306 0.327877 57.035 0.347683 57.1377C0.354698 57.1757 0.358825 57.2133 0.366665 57.2512C0.397612 57.3911 0.434336 57.5306 0.478488 57.6671L8.34406 82.149V107.872C8.34406 107.98 8.35232 108.085 8.36016 108.192C8.36263 108.227 8.36181 108.262 8.36552 108.297C8.37501 108.401 8.39317 108.504 8.4105 108.606C8.4171 108.645 8.42081 108.684 8.42824 108.722C8.44805 108.823 8.47404 108.92 8.50045 109.018C8.51118 109.059 8.51985 109.1 8.53181 109.14C8.55946 109.233 8.59371 109.324 8.62795 109.414C8.64487 109.459 8.65849 109.503 8.67623 109.547C8.71131 109.633 8.75257 109.716 8.79301 109.798C8.8157 109.845 8.83675 109.892 8.86027 109.938C8.90442 110.02 8.95311 110.098 9.00097 110.177C9.02862 110.221 9.05255 110.266 9.08144 110.309C9.14251 110.4 9.20894 110.487 9.27579 110.574C9.29724 110.602 9.3154 110.63 9.33768 110.657C9.52419 110.885 9.73257 111.093 9.96075 111.28C9.99335 111.307 10.0276 111.329 10.0614 111.355C10.1415 111.416 10.2219 111.478 10.3065 111.535C10.3569 111.568 10.4093 111.597 10.46 111.628C10.5314 111.672 10.6024 111.716 10.6763 111.756C10.7311 111.785 10.7885 111.81 10.845 111.837C10.9181 111.872 10.9907 111.909 11.0662 111.94C11.1227 111.963 11.1801 111.981 11.2374 112.003C11.3154 112.031 11.3922 112.061 11.4722 112.085C11.5308 112.103 11.5906 112.115 11.6492 112.13C11.7289 112.151 11.8073 112.172 11.8886 112.189C11.9595 112.203 12.0309 112.211 12.1015 112.222C12.172 112.231 12.241 112.245 12.3128 112.252C12.4514 112.265 12.5913 112.272 12.7303 112.273C12.7357 112.273 12.7398 112.274 12.7452 112.274H21.547V184.867C21.547 199.843 33.7308 212.028 48.7068 212.028H144.034C159.01 212.028 171.194 199.843 171.194 184.867V112.273H179.996C182.427 112.273 184.397 110.301 184.397 107.871V81.4615C184.399 81.3179 184.391 81.1735 184.376 81.0291ZM134.16 85.8651L116.555 103.471H93.7934L111.399 85.8651H134.16ZM98.9488 85.8651L81.3431 103.471H58.5827L76.1881 85.8651H98.9488ZM161.06 10.6998L164.541 21.5347L150.226 14.1808L161.06 10.6998ZM138.372 17.9881L160.518 29.3656L138.849 36.3267L116.702 24.9509L138.372 17.9881ZM104.848 28.7594L126.995 40.1353L105.324 47.0972L83.1789 35.7205L104.848 28.7594ZM71.3273 39.5283L93.4728 50.9049L71.8014 57.8677L49.6559 46.491L71.3273 39.5283ZM37.8022 50.2984L59.9481 61.675L38.2796 68.6361L16.1325 57.2603L37.8022 50.2984ZM12.1093 65.092L26.4256 72.4451L15.5903 75.9261L12.1093 65.092ZM17.1467 97.2455V85.8647H28.5275L17.1467 97.2455ZM25.9494 103.471H23.3725L40.9774 85.8647H63.7377L46.1324 103.471H25.9494ZM162.392 184.868C162.392 194.99 154.157 203.225 144.035 203.225H48.7077C38.5858 203.225 30.3513 194.99 30.3513 184.868V112.274H162.392L162.392 184.868ZM151.765 103.471H129.005L146.61 85.8647H169.371L151.765 103.471ZM175.595 103.471H166.793H164.215L175.595 92.0901V103.471Z" fill="#336AFF"/>
</svg>
