<svg width="701" height="413" viewBox="0 0 701 413" fill="none" xmlns="http://www.w3.org/2000/svg">
<path d="M527.691 57.2824C573.312 67.0279 620.811 84.0698 642.526 117.262C666.232 153.498 651.056 199.894 617.437 230.84C583.817 261.786 535.228 279.918 486.576 293.488C426.688 310.193 364.331 321.353 301.183 326.67C258.985 330.223 215.982 331.143 174.428 324.339C132.874 317.534 92.6138 302.513 63.7723 277.896C-2.33387 221.476 24.1327 148.487 99.1346 108.121C189.101 59.7007 315.623 38.3885 422.953 43.7004C458.32 45.4517 493.477 49.975 527.691 57.2824Z" fill="#DAF5FF"/>
<path d="M55.2814 251.407C53.4092 256.286 51.0825 261.118 47.3936 265.053C43.7046 268.987 38.4785 271.959 32.798 272.23C24.0385 272.648 15.9541 266.194 13.8396 258.459C9.74312 243.479 24.3254 228.901 39.3152 224.799C59.1923 219.361 60.0614 238.954 55.2814 251.407Z" fill="#00BD85"/>
<path d="M645.964 94.3914C652.249 101.284 655.592 109.23 653.178 116.765C651.093 123.278 644.693 128.768 637.246 129.248C630.889 129.658 624.933 126.63 619.553 123.526C607.633 116.649 583.018 105.717 586.167 89.9086C591.127 65.016 629.117 75.9158 645.964 94.3914Z" fill="#D287FD"/>
<path d="M375.448 16.3994C378.285 15.4225 381.513 15.3414 384.585 16.5123C389.334 18.3216 392.658 22.9742 392.42 27.6727C392.125 33.5147 386.22 38.6536 379.782 38.6711C373.345 38.6886 367.406 33.5804 367.073 27.7406C366.773 22.4966 370.521 18.096 375.448 16.3994Z" fill="#86C1FD"/>
<path d="M581.838 68.7015C583.072 68.2765 584.476 68.2414 585.813 68.7507C587.878 69.5382 589.324 71.5611 589.221 73.6059C589.092 76.1469 586.524 78.3823 583.723 78.3899C580.924 78.3976 578.341 76.1754 578.196 73.6355C578.065 71.353 579.696 69.4396 581.838 68.7015Z" fill="#FEC92E"/>
<path d="M547.163 47.3564C547.209 47.2578 547.263 47.168 547.326 47.0771C547.388 46.9873 547.461 46.904 547.543 46.8306C547.623 46.7573 547.723 46.6828 547.814 46.6247C547.913 46.5667 548.022 46.5185 548.131 46.4769C548.23 46.4353 548.348 46.4035 548.465 46.386C548.691 46.3455 548.927 46.3455 549.162 46.386C549.27 46.4024 549.388 46.4353 549.487 46.4769C549.596 46.5174 549.704 46.5667 549.804 46.6247C549.895 46.6828 549.995 46.7562 550.075 46.8306C550.156 46.904 550.229 46.9873 550.292 47.0771C550.356 47.168 550.411 47.2578 550.455 47.3564C550.5 47.4549 550.536 47.5535 550.564 47.6608C550.582 47.7682 550.59 47.8744 550.59 47.9817C550.59 48.0792 550.582 48.1876 550.564 48.2939C550.536 48.3925 550.5 48.4998 550.455 48.5984C550.411 48.6958 550.355 48.7867 550.292 48.8776C550.23 48.9675 550.157 49.0507 550.066 49.1241C549.74 49.4198 549.28 49.6005 548.81 49.6005C548.339 49.6005 547.878 49.4198 547.544 49.1241C547.462 49.0507 547.389 48.9675 547.327 48.8776C547.264 48.7867 547.209 48.6958 547.164 48.5984C547.119 48.4998 547.083 48.3925 547.065 48.2939C547.039 48.1876 547.029 48.0792 547.029 47.9817C547.029 47.8744 547.039 47.7671 547.065 47.6608C547.081 47.5546 547.117 47.4549 547.163 47.3564Z" fill="#C9E5FF"/>
<path d="M530.478 47.3564C530.523 47.2579 530.577 47.1681 530.641 47.0771C530.705 46.9873 530.777 46.9041 530.858 46.8307C530.939 46.7573 531.039 46.6829 531.129 46.6248C531.229 46.5668 531.338 46.5186 531.446 46.477C531.545 46.4353 531.663 46.4036 531.772 46.3861C532.36 46.2798 532.975 46.4518 533.391 46.8296C533.473 46.903 533.545 46.9862 533.608 47.0761C533.67 47.167 533.725 47.2568 533.77 47.3553C533.816 47.4539 533.852 47.5525 533.87 47.6598C533.897 47.7671 533.907 47.8734 533.907 47.9807C533.907 48.0782 533.897 48.1866 533.87 48.2929C533.852 48.3914 533.816 48.4988 533.77 48.5973C533.726 48.6948 533.672 48.7857 533.608 48.8766C533.544 48.9664 533.473 49.0497 533.391 49.1231C533.057 49.4188 532.595 49.5995 532.125 49.5995C531.655 49.5995 531.194 49.4188 530.867 49.1231C530.777 49.0497 530.705 48.9664 530.641 48.8766C530.578 48.7857 530.524 48.6948 530.478 48.5973C530.432 48.4988 530.396 48.3914 530.378 48.2929C530.351 48.1866 530.342 48.0782 530.342 47.9807C530.342 47.8734 530.35 47.766 530.378 47.6598C530.396 47.5547 530.432 47.455 530.478 47.3564Z" fill="#C9E5FF"/>
<path d="M513.793 47.3563C513.839 47.2577 513.892 47.1679 513.956 47.077C514.019 46.9872 514.091 46.904 514.183 46.8306C514.589 46.4527 515.213 46.2808 515.792 46.387C515.901 46.4035 516.019 46.4363 516.127 46.4779C516.236 46.5185 516.336 46.5677 516.435 46.6258C516.535 46.6838 516.625 46.7572 516.706 46.8317C516.787 46.9051 516.86 46.9883 516.923 47.0781C516.987 47.169 517.04 47.2588 517.086 47.3574C517.13 47.456 517.166 47.5546 517.185 47.6619C517.212 47.7692 517.221 47.8755 517.221 47.9828C517.221 48.0803 517.212 48.1887 517.185 48.2949C517.166 48.3935 517.13 48.5008 517.086 48.5994C517.04 48.6969 516.987 48.7878 516.923 48.8787C516.86 48.9685 516.787 49.0517 516.706 49.1251C516.371 49.4208 515.91 49.6016 515.44 49.6016C514.97 49.6016 514.508 49.4208 514.183 49.1251C514.101 49.0517 514.02 48.9685 513.956 48.8787C513.892 48.7878 513.838 48.6969 513.793 48.5994C513.749 48.5008 513.713 48.3935 513.694 48.2949C513.667 48.1887 513.658 48.0803 513.658 47.9828C513.658 47.8755 513.667 47.7681 513.694 47.6619C513.713 47.5546 513.749 47.4549 513.793 47.3563Z" fill="#C9E5FF"/>
<path d="M497.11 47.3564C497.154 47.2578 497.209 47.168 497.273 47.0771C497.336 46.9873 497.408 46.904 497.499 46.8306C497.581 46.7573 497.67 46.6828 497.77 46.6247C497.861 46.5667 497.969 46.5185 498.078 46.4769C498.186 46.4353 498.295 46.4035 498.413 46.386C498.64 46.3455 498.873 46.3455 499.11 46.386C499.218 46.4024 499.336 46.4353 499.444 46.4769C499.552 46.5174 499.651 46.5667 499.751 46.6247C499.85 46.6828 499.942 46.7562 500.022 46.8306C500.103 46.904 500.177 46.9873 500.239 47.0771C500.302 47.168 500.366 47.2578 500.402 47.3564C500.448 47.4549 500.484 47.5535 500.511 47.6608C500.529 47.7682 500.547 47.8744 500.547 47.9817C500.547 48.0792 500.529 48.1876 500.511 48.2939C500.484 48.3925 500.448 48.4998 500.402 48.5984C500.357 48.6958 500.303 48.7867 500.239 48.8776C500.175 48.9675 500.103 49.0507 500.022 49.1241C499.687 49.4198 499.227 49.6005 498.757 49.6005C498.286 49.6005 497.825 49.4198 497.499 49.1241C497.418 49.0507 497.336 48.9675 497.273 48.8776C497.21 48.7867 497.156 48.6958 497.11 48.5984C497.064 48.4998 497.028 48.3925 497.01 48.2939C496.983 48.1876 496.974 48.0792 496.974 47.9817C496.974 47.8744 496.983 47.7671 497.01 47.6608C497.028 47.5546 497.064 47.4549 497.11 47.3564Z" fill="#C9E5FF"/>
<path d="M547.163 62.5146C547.209 62.416 547.263 62.3262 547.326 62.2353C547.388 62.1444 547.461 62.0622 547.543 61.9889C548.212 61.381 549.405 61.381 550.065 61.9889C550.155 62.0622 550.227 62.1444 550.291 62.2353C550.355 62.3262 550.409 62.416 550.454 62.5146C550.499 62.6131 550.535 62.7117 550.553 62.819C550.581 62.9176 550.589 63.0249 550.589 63.1312C550.589 63.5583 550.399 63.9778 550.065 64.2812C549.984 64.3546 549.892 64.4203 549.793 64.4783C549.703 64.5353 549.594 64.5846 549.486 64.6262C549.377 64.6667 549.269 64.6996 549.16 64.7248C549.042 64.7412 548.925 64.7576 548.808 64.7576C548.69 64.7576 548.573 64.7412 548.455 64.7248C548.347 64.6996 548.229 64.6667 548.12 64.6262C548.021 64.5856 547.911 64.5353 547.813 64.4783C547.722 64.4203 547.632 64.3546 547.541 64.2812C547.459 64.2078 547.387 64.1246 547.324 64.0348C547.262 63.9438 547.206 63.8529 547.162 63.7544C547.117 63.6569 547.081 63.5485 547.053 63.451C547.035 63.3437 547.025 63.2363 547.025 63.1301C547.025 63.0227 547.035 62.9242 547.053 62.8179C547.081 62.7117 547.117 62.6131 547.163 62.5146Z" fill="#C9E5FF"/>
<path d="M530.478 62.5145C530.523 62.4159 530.577 62.3261 530.641 62.2352C530.705 62.1443 530.777 62.0622 530.858 61.9888C530.939 61.9154 531.039 61.8409 531.129 61.7829C531.229 61.7248 531.338 61.6767 531.446 61.635C531.545 61.5945 531.663 61.5617 531.772 61.5452C532.36 61.439 532.975 61.6109 533.391 61.9888C533.473 62.0622 533.545 62.1443 533.608 62.2352C533.67 62.3261 533.725 62.4159 533.77 62.5145C533.816 62.6131 533.852 62.7117 533.879 62.819C533.897 62.9252 533.907 63.0249 533.907 63.1311C533.907 63.2374 533.897 63.3447 533.879 63.452C533.852 63.5495 533.816 63.6579 533.77 63.7554C533.726 63.854 533.672 63.9449 533.608 64.0358C533.544 64.1256 533.473 64.2088 533.391 64.2822C533.31 64.3556 533.21 64.4213 533.119 64.4794C533.021 64.5363 532.911 64.5856 532.812 64.6272C532.703 64.6678 532.585 64.7006 532.477 64.7258C532.359 64.7422 532.242 64.7587 532.124 64.7587C532.007 64.7587 531.889 64.7422 531.77 64.7258C531.662 64.7006 531.544 64.6678 531.445 64.6272C531.336 64.5867 531.228 64.5363 531.137 64.4794C531.039 64.4213 530.947 64.3556 530.866 64.2822C530.532 63.9777 530.342 63.5594 530.342 63.1322C530.342 63.0249 530.35 62.9187 530.378 62.8201C530.396 62.7117 530.432 62.6131 530.478 62.5145Z" fill="#C9E5FF"/>
<path d="M513.793 62.5145C513.839 62.4159 513.892 62.3261 513.956 62.2352C514.019 62.1443 514.091 62.0622 514.173 61.9888C514.589 61.6109 515.213 61.439 515.792 61.5452C515.901 61.5617 516.019 61.5945 516.127 61.635C516.226 61.6767 516.336 61.7259 516.435 61.7829C516.535 61.8398 516.625 61.9143 516.706 61.9888C516.787 62.0622 516.86 62.1443 516.923 62.2352C516.987 62.3261 517.04 62.4159 517.086 62.5145C517.13 62.6131 517.166 62.7117 517.185 62.819C517.212 62.9176 517.221 63.0249 517.221 63.1311C517.221 63.5583 517.03 63.9778 516.696 64.2811C516.371 64.5856 515.909 64.7576 515.44 64.7576C515.322 64.7576 515.205 64.7411 515.097 64.7247C514.98 64.6995 514.87 64.6666 514.763 64.6261C514.654 64.5856 514.546 64.5352 514.446 64.4783C514.355 64.4202 514.265 64.3545 514.174 64.2811C514.094 64.2078 514.02 64.1245 513.957 64.0347C513.893 63.9438 513.839 63.8529 513.795 63.7543C513.75 63.6569 513.714 63.5484 513.696 63.4509C513.668 63.3436 513.66 63.2363 513.66 63.13C513.66 63.0227 513.668 62.9241 513.696 62.8179C513.713 62.7116 513.749 62.6131 513.793 62.5145Z" fill="#C9E5FF"/>
<path d="M497.11 62.5145C497.154 62.4159 497.209 62.3261 497.273 62.2352C497.336 62.1443 497.417 62.0622 497.499 61.9888C497.581 61.9154 497.67 61.8409 497.77 61.7829C497.861 61.7248 497.969 61.6767 498.078 61.635C498.186 61.5945 498.295 61.5617 498.413 61.5452C498.992 61.439 499.606 61.6109 500.022 61.9888C500.103 62.0622 500.177 62.1443 500.239 62.2352C500.302 62.3261 500.356 62.4159 500.402 62.5145C500.448 62.6131 500.484 62.7117 500.511 62.819C500.529 62.9252 500.537 63.0249 500.537 63.1311C500.537 63.2374 500.529 63.3447 500.511 63.452C500.484 63.5495 500.448 63.6579 500.402 63.7554C500.357 63.854 500.303 63.9449 500.239 64.0358C500.175 64.1256 500.103 64.2088 500.022 64.2822C499.942 64.3556 499.842 64.4213 499.751 64.4794C499.651 64.5363 499.552 64.5856 499.444 64.6272C499.335 64.6678 499.217 64.7006 499.11 64.7258C498.992 64.7422 498.875 64.7587 498.757 64.7587C498.64 64.7587 498.521 64.7422 498.413 64.7258C498.295 64.7006 498.186 64.6678 498.078 64.6272C497.969 64.5867 497.861 64.5363 497.77 64.4794C497.67 64.4213 497.58 64.3556 497.499 64.2822C497.418 64.2088 497.336 64.1256 497.273 64.0358C497.21 63.9449 497.156 63.854 497.11 63.7554C497.064 63.6579 497.028 63.5495 497.01 63.452C496.983 63.3447 496.974 63.2374 496.974 63.1311C496.974 63.0238 496.983 62.9252 497.01 62.819C497.028 62.7117 497.064 62.6131 497.11 62.5145Z" fill="#C9E5FF"/>
<path d="M547.163 77.6725C547.209 77.5739 547.263 77.4754 547.326 77.3932C547.388 77.3023 547.461 77.2202 547.543 77.1468C547.633 77.0635 547.723 76.9989 547.814 76.9409C547.913 76.8828 548.022 76.8335 548.121 76.7919C548.23 76.7514 548.348 76.7185 548.456 76.7021C548.691 76.6605 548.927 76.6605 549.162 76.7021C549.27 76.7185 549.388 76.7514 549.497 76.7919C549.596 76.8324 549.705 76.8828 549.804 76.9409C549.895 76.9978 549.985 77.0635 550.066 77.1468C550.156 77.2202 550.229 77.3023 550.292 77.3932C550.356 77.4754 550.411 77.5739 550.455 77.6725C550.5 77.7711 550.536 77.8696 550.554 77.977C550.582 78.0755 550.59 78.1829 550.59 78.2891C550.59 78.3954 550.582 78.5027 550.554 78.6089C550.536 78.7075 550.5 78.8148 550.455 78.9134C550.411 79.012 550.355 79.1029 550.292 79.1927C550.23 79.2836 550.157 79.3657 550.066 79.4402C549.74 79.7359 549.28 79.9079 548.81 79.9079C548.691 79.9079 548.575 79.9002 548.456 79.8838C548.348 79.8586 548.23 79.8257 548.121 79.7852C548.022 79.7436 547.913 79.6943 547.814 79.6374C547.723 79.5804 547.633 79.5147 547.543 79.4413C547.461 79.3668 547.388 79.2847 547.326 79.1938C547.263 79.104 547.207 79.0131 547.163 78.9145C547.118 78.8159 547.082 78.7086 547.054 78.61C547.036 78.5038 547.027 78.3965 547.027 78.2902C547.027 78.184 547.036 78.0766 547.054 77.9781C547.081 77.8696 547.117 77.7711 547.163 77.6725Z" fill="#C9E5FF"/>
<path d="M530.478 77.6725C530.523 77.5739 530.577 77.4754 530.641 77.3932C530.705 77.3023 530.777 77.2202 530.867 77.1468C530.949 77.0635 531.04 76.9989 531.129 76.9409C531.229 76.8828 531.338 76.8335 531.436 76.7919C531.545 76.7514 531.663 76.7185 531.77 76.7021C532.005 76.6605 532.241 76.6605 532.476 76.7021C532.584 76.7185 532.702 76.7514 532.801 76.7919C532.91 76.8324 533.018 76.8828 533.118 76.9409C533.209 76.9978 533.299 77.0635 533.389 77.1468C533.471 77.2202 533.544 77.3023 533.606 77.3932C533.669 77.4754 533.723 77.5739 533.769 77.6725C533.815 77.7711 533.851 77.8696 533.878 77.977C533.896 78.0755 533.905 78.1829 533.905 78.2891C533.905 78.3954 533.896 78.5027 533.878 78.6089C533.851 78.7075 533.815 78.8148 533.769 78.9134C533.725 79.012 533.67 79.1029 533.606 79.1927C533.543 79.2836 533.471 79.3657 533.389 79.4402C533.299 79.5136 533.209 79.5793 533.118 79.6363C533.019 79.6943 532.91 79.7425 532.801 79.7841C532.702 79.8246 532.584 79.8575 532.476 79.8827C532.357 79.8991 532.241 79.9068 532.122 79.9068C531.652 79.9068 531.192 79.7337 530.865 79.4391C530.775 79.3646 530.702 79.2825 530.638 79.1916C530.576 79.1018 530.521 79.0109 530.476 78.9123C530.43 78.8137 530.394 78.7064 530.376 78.6078C530.349 78.5016 530.339 78.3943 530.339 78.288C530.339 78.1818 530.348 78.0745 530.376 77.9759C530.396 77.8696 530.432 77.7711 530.478 77.6725Z" fill="#C9E5FF"/>
<path d="M513.793 77.6725C513.839 77.5739 513.892 77.4754 513.956 77.3932C514.019 77.3023 514.091 77.2202 514.173 77.1468C514.255 77.0635 514.354 76.9989 514.444 76.9409C514.543 76.8828 514.653 76.8335 514.761 76.7919C514.86 76.7514 514.978 76.7185 515.087 76.7021C515.322 76.6605 515.557 76.6605 515.792 76.7021C515.901 76.7185 516.019 76.7514 516.127 76.7919C516.226 76.8324 516.336 76.8828 516.435 76.9409C516.525 76.9978 516.625 77.0635 516.706 77.1468C516.787 77.2202 516.86 77.3023 516.923 77.3932C516.987 77.4754 517.04 77.5739 517.086 77.6725C517.13 77.7711 517.166 77.8696 517.194 77.977C517.212 78.0755 517.23 78.1829 517.23 78.2891C517.23 78.3954 517.212 78.5027 517.194 78.6089C517.166 78.7075 517.13 78.8148 517.086 78.9134C517.04 79.012 516.987 79.1029 516.923 79.1927C516.86 79.2836 516.787 79.3657 516.706 79.4402C516.624 79.5136 516.525 79.5793 516.435 79.6363C516.336 79.6943 516.227 79.7425 516.127 79.7841C516.019 79.8246 515.901 79.8575 515.792 79.8827C515.675 79.8991 515.557 79.9068 515.44 79.9068C515.322 79.9068 515.205 79.8991 515.097 79.8827C514.98 79.8575 514.87 79.8246 514.763 79.7841C514.654 79.7425 514.546 79.6932 514.455 79.6363C514.356 79.5793 514.265 79.5136 514.184 79.4402C514.102 79.3657 514.021 79.2836 513.957 79.1927C513.893 79.1029 513.839 79.012 513.795 78.9134C513.75 78.8148 513.714 78.7075 513.696 78.6089C513.668 78.5027 513.66 78.3954 513.66 78.2891C513.66 78.1829 513.668 78.0755 513.696 77.977C513.713 77.8696 513.749 77.7711 513.793 77.6725Z" fill="#C9E5FF"/>
<path d="M497.11 77.6725C497.154 77.5739 497.209 77.4754 497.273 77.3932C497.336 77.3023 497.408 77.2202 497.49 77.1468C497.58 77.0635 497.67 76.9989 497.77 76.9409C497.861 76.8828 497.969 76.8335 498.078 76.7919C498.186 76.7514 498.295 76.7185 498.413 76.7021C498.64 76.6605 498.873 76.6605 499.11 76.7021C499.218 76.7185 499.336 76.7514 499.444 76.7919C499.552 76.8324 499.651 76.8828 499.751 76.9409C499.85 76.9978 499.942 77.0635 500.022 77.1468C500.103 77.2202 500.177 77.3023 500.239 77.3932C500.302 77.4754 500.366 77.5739 500.402 77.6725C500.448 77.7711 500.484 77.8696 500.511 77.977C500.529 78.0755 500.547 78.1829 500.547 78.2891C500.547 78.3954 500.529 78.5027 500.511 78.6089C500.484 78.7075 500.448 78.8148 500.402 78.9134C500.366 79.012 500.303 79.1029 500.239 79.1927C500.175 79.2836 500.103 79.3657 500.022 79.4402C499.942 79.5136 499.85 79.5793 499.751 79.6363C499.651 79.6943 499.552 79.7425 499.444 79.7841C499.335 79.8246 499.217 79.8575 499.11 79.8827C498.992 79.8991 498.875 79.9068 498.757 79.9068C498.286 79.9068 497.825 79.7337 497.499 79.4391C497.418 79.3646 497.336 79.2825 497.273 79.1916C497.21 79.1018 497.156 79.0109 497.11 78.9123C497.064 78.8137 497.028 78.7064 497.01 78.6078C496.983 78.5016 496.974 78.3943 496.974 78.288C496.974 78.1818 496.983 78.0745 497.01 77.9759C497.028 77.8696 497.064 77.7711 497.11 77.6725Z" fill="#C9E5FF"/>
<path d="M547.163 92.8307C547.209 92.7322 547.263 92.6336 547.326 92.5515C547.388 92.4606 547.461 92.3784 547.543 92.3039C548.212 91.6972 549.405 91.6972 550.074 92.3039C550.155 92.3784 550.227 92.4606 550.291 92.5515C550.355 92.6336 550.409 92.7322 550.454 92.8307C550.499 92.9293 550.535 93.0279 550.553 93.1352C550.581 93.2338 550.589 93.3411 550.589 93.4474C550.589 93.5547 550.581 93.6609 550.553 93.7672C550.535 93.8658 550.499 93.9731 550.454 94.0717C550.409 94.1702 550.354 94.2611 550.291 94.3509C550.229 94.4418 550.156 94.5229 550.074 94.5974C549.739 94.9018 549.279 95.0738 548.808 95.0738C548.338 95.0738 547.877 94.9008 547.543 94.5974C547.461 94.524 547.388 94.4418 547.326 94.3509C547.263 94.2611 547.207 94.1702 547.163 94.0717C547.118 93.9731 547.082 93.8658 547.064 93.7672C547.037 93.6609 547.028 93.5536 547.028 93.4474C547.028 93.3411 547.037 93.2338 547.064 93.1352C547.081 93.0279 547.117 92.9293 547.163 92.8307Z" fill="#C9E5FF"/>
<path d="M530.478 92.8307C530.523 92.7322 530.577 92.6336 530.641 92.5515C530.705 92.4606 530.777 92.3784 530.858 92.3039C531.527 91.6972 532.72 91.6972 533.389 92.3039C533.471 92.3784 533.544 92.4606 533.606 92.5515C533.669 92.6336 533.723 92.7322 533.769 92.8307C533.815 92.9293 533.851 93.0279 533.869 93.1352C533.896 93.2338 533.905 93.3411 533.905 93.4474C533.905 93.5547 533.896 93.6609 533.869 93.7672C533.851 93.8658 533.815 93.9731 533.769 94.0717C533.725 94.1702 533.67 94.2611 533.606 94.3509C533.543 94.4418 533.471 94.5229 533.389 94.5974C533.055 94.9018 532.594 95.0738 532.124 95.0738C531.653 95.0738 531.193 94.9008 530.858 94.5974C530.777 94.524 530.705 94.4418 530.641 94.3509C530.578 94.2611 530.524 94.1702 530.478 94.0717C530.432 93.9731 530.396 93.8658 530.378 93.7672C530.351 93.6609 530.342 93.5536 530.342 93.4474C530.342 93.3411 530.35 93.2338 530.378 93.1352C530.396 93.0279 530.432 92.9293 530.478 92.8307Z" fill="#C9E5FF"/>
<path d="M513.793 92.8306C513.839 92.732 513.892 92.6335 513.956 92.5513C514.019 92.4604 514.091 92.3783 514.173 92.3038C514.589 91.9259 515.213 91.7529 515.792 91.8602C515.901 91.8767 516.019 91.9095 516.127 91.9511C516.226 91.9916 516.336 92.042 516.435 92.099C516.525 92.157 516.625 92.2304 516.706 92.3049C516.787 92.3794 516.86 92.4615 516.923 92.5524C516.987 92.6345 517.04 92.7331 517.086 92.8317C517.13 92.9303 517.166 93.0288 517.185 93.1362C517.212 93.2347 517.221 93.3421 517.221 93.4483C517.221 93.5557 517.212 93.6619 517.185 93.7681C517.166 93.8667 517.13 93.974 517.086 94.0726C517.04 94.1712 516.987 94.2621 516.923 94.3519C516.86 94.4428 516.787 94.5238 516.706 94.5983C516.371 94.9028 515.91 95.0747 515.44 95.0747C515.322 95.0747 515.205 95.0583 515.097 95.0419C514.98 95.0178 514.87 94.9849 514.763 94.9521C514.654 94.9105 514.546 94.8535 514.455 94.7955C514.356 94.7374 514.265 94.6728 514.184 94.5983C514.102 94.5249 514.021 94.4428 513.957 94.3519C513.893 94.2621 513.839 94.1712 513.795 94.0726C513.75 93.974 513.714 93.8667 513.696 93.7681C513.668 93.6619 513.66 93.5546 513.66 93.4483C513.66 93.3421 513.668 93.2347 513.696 93.1362C513.713 93.0277 513.749 92.9292 513.793 92.8306Z" fill="#C9E5FF"/>
<path d="M497.11 92.8307C497.154 92.7322 497.209 92.6336 497.272 92.5515C497.336 92.4606 497.407 92.3784 497.489 92.3039C498.159 91.6972 499.362 91.6972 500.021 92.3039C500.102 92.3784 500.175 92.4606 500.238 92.5515C500.301 92.6336 500.355 92.7322 500.401 92.8307C500.447 92.9293 500.483 93.0279 500.509 93.1352C500.527 93.2338 500.536 93.3411 500.536 93.4474C500.536 93.5547 500.527 93.6609 500.509 93.7672C500.483 93.8658 500.447 93.9731 500.401 94.0717C500.356 94.1702 500.302 94.2611 500.238 94.3509C500.174 94.4418 500.102 94.5229 500.021 94.5974C499.686 94.9018 499.225 95.0738 498.755 95.0738C498.285 95.0738 497.823 94.9008 497.498 94.5974C497.417 94.524 497.335 94.4418 497.271 94.3509C497.209 94.2611 497.154 94.1702 497.108 94.0717C497.063 93.9731 497.027 93.8658 497.008 93.7672C496.982 93.6609 496.972 93.5536 496.972 93.4474C496.972 93.3411 496.982 93.2338 497.008 93.1352C497.028 93.0279 497.064 92.9293 497.11 92.8307Z" fill="#C9E5FF"/>
<path d="M547.163 107.989C547.209 107.89 547.263 107.792 547.326 107.708C547.388 107.619 547.461 107.536 547.543 107.462C548.203 106.854 549.415 106.854 550.074 107.462C550.155 107.535 550.227 107.619 550.291 107.708C550.355 107.792 550.409 107.89 550.454 107.989C550.499 108.086 550.535 108.186 550.553 108.292C550.581 108.391 550.589 108.498 550.589 108.605C550.589 109.033 550.399 109.451 550.074 109.755C549.984 109.829 549.893 109.896 549.793 109.953C549.703 110.011 549.594 110.059 549.486 110.1C549.386 110.141 549.269 110.174 549.16 110.191C549.042 110.217 548.925 110.224 548.808 110.224C548.69 110.224 548.573 110.217 548.455 110.191C548.347 110.175 548.229 110.142 548.12 110.1C548.021 110.06 547.911 110.011 547.813 109.953C547.722 109.895 547.632 109.829 547.541 109.755C547.216 109.451 547.025 109.033 547.025 108.605C547.025 108.498 547.035 108.391 547.053 108.292C547.081 108.185 547.117 108.086 547.163 107.989Z" fill="#C9E5FF"/>
<path d="M530.478 107.989C530.523 107.89 530.577 107.792 530.641 107.708C530.705 107.619 530.777 107.536 530.858 107.462C530.948 107.38 531.039 107.314 531.129 107.256C531.229 107.199 531.338 107.15 531.446 107.108C531.545 107.068 531.663 107.035 531.772 107.017C532.36 106.911 532.975 107.083 533.391 107.461C533.473 107.534 533.545 107.617 533.608 107.707C533.67 107.791 533.725 107.889 533.77 107.988C533.816 108.085 533.852 108.185 533.879 108.291C533.897 108.39 533.907 108.497 533.907 108.604C533.907 109.031 533.717 109.45 533.391 109.754C533.057 110.05 532.595 110.223 532.125 110.223C532.008 110.223 531.89 110.215 531.772 110.19C531.663 110.174 531.545 110.141 531.446 110.099C531.338 110.059 531.229 110.009 531.129 109.951C531.039 109.893 530.948 109.828 530.858 109.754C530.532 109.45 530.343 109.031 530.343 108.604C530.343 108.497 530.351 108.39 530.37 108.291C530.396 108.185 530.432 108.086 530.478 107.989Z" fill="#C9E5FF"/>
<path d="M513.793 107.989C513.839 107.89 513.892 107.792 513.956 107.708C514.019 107.619 514.091 107.536 514.173 107.462C514.263 107.38 514.354 107.314 514.444 107.256C514.543 107.199 514.653 107.15 514.761 107.108C514.86 107.068 514.978 107.035 515.087 107.017C515.666 106.911 516.29 107.083 516.706 107.461C516.787 107.534 516.86 107.617 516.923 107.707C516.987 107.791 517.04 107.889 517.086 107.988C517.13 108.085 517.166 108.185 517.194 108.291C517.212 108.39 517.221 108.497 517.221 108.604C517.221 109.031 517.03 109.45 516.706 109.754C516.616 109.828 516.525 109.894 516.435 109.951C516.336 110.009 516.227 110.058 516.127 110.099C516.019 110.14 515.901 110.173 515.792 110.19C515.675 110.215 515.557 110.223 515.44 110.223C515.322 110.223 515.205 110.215 515.097 110.19C514.98 110.174 514.87 110.141 514.763 110.099C514.654 110.059 514.546 110.009 514.455 109.951C514.356 109.893 514.265 109.828 514.184 109.754C513.849 109.45 513.66 109.031 513.66 108.604C513.66 108.497 513.668 108.39 513.696 108.291C513.713 108.185 513.749 108.086 513.793 107.989Z" fill="#C9E5FF"/>
<path d="M497.11 107.989C497.154 107.89 497.209 107.791 497.272 107.708C497.336 107.618 497.417 107.536 497.499 107.462C497.907 107.084 498.53 106.911 499.108 107.018C499.217 107.035 499.335 107.067 499.442 107.109C499.551 107.15 499.65 107.2 499.75 107.257C499.849 107.315 499.94 107.381 500.021 107.463C500.102 107.536 500.175 107.619 500.238 107.709C500.301 107.793 500.355 107.891 500.401 107.99C500.447 108.087 500.483 108.187 500.509 108.293C500.527 108.392 500.536 108.499 500.536 108.606C500.536 109.033 500.345 109.452 500.021 109.756C499.686 110.052 499.225 110.225 498.755 110.225C498.285 110.225 497.823 110.052 497.498 109.756C497.163 109.452 496.973 109.033 496.973 108.606C496.973 108.499 496.983 108.392 497.01 108.293C497.028 108.185 497.064 108.086 497.11 107.989Z" fill="#C9E5FF"/>
<path d="M12.2435 308.165C12.135 308.124 12.0361 308.074 11.9361 308.018C11.836 307.961 11.7455 307.895 11.6648 307.82C10.9957 307.213 10.9957 306.128 11.6648 305.529C11.7455 305.447 11.836 305.381 11.9361 305.323C12.0361 305.265 12.135 305.216 12.2435 305.175C12.352 305.135 12.4604 305.102 12.5786 305.086C12.6871 305.06 12.8052 305.053 12.9222 305.053C13.3936 305.053 13.8541 305.226 14.188 305.529C14.2688 305.603 14.3423 305.685 14.405 305.776C14.4677 305.858 14.5219 305.956 14.5677 306.055C14.6123 306.153 14.6485 306.252 14.6763 306.351C14.6944 306.457 14.7124 306.564 14.7124 306.67C14.7124 306.778 14.6944 306.884 14.6763 306.991C14.6485 307.09 14.6123 307.197 14.5677 307.296C14.5231 307.386 14.4677 307.484 14.405 307.575C14.3411 307.657 14.2688 307.739 14.188 307.822C14.1072 307.896 14.0156 307.962 13.9168 308.019C13.8167 308.076 13.7178 308.125 13.6081 308.166C13.5008 308.207 13.3815 308.24 13.2742 308.265C13.156 308.282 13.0379 308.29 12.921 308.29C12.8041 308.29 12.6943 308.282 12.5774 308.265C12.4604 308.24 12.352 308.207 12.2435 308.165Z" fill="#C9E5FF"/>
<path d="M12.2436 323.324C12.1351 323.283 12.0362 323.234 11.9361 323.176C11.8361 323.118 11.7456 323.052 11.6649 322.979C11.5841 322.905 11.5021 322.814 11.4382 322.732C11.3743 322.641 11.3213 322.544 11.2755 322.444C11.2309 322.354 11.1947 322.247 11.1766 322.148C11.0597 321.614 11.2489 321.055 11.6649 320.677C11.7456 320.603 11.8361 320.537 11.9361 320.48C12.0362 320.423 12.1351 320.374 12.2436 320.332C12.3521 320.291 12.4605 320.258 12.5787 320.234C12.6956 320.217 12.8053 320.209 12.9223 320.209C13.0392 320.209 13.1573 320.217 13.2755 320.234C13.3828 320.258 13.5022 320.291 13.6094 320.332C13.7179 320.373 13.818 320.422 13.918 320.48C14.0169 320.538 14.1085 320.603 14.1893 320.677C14.27 320.751 14.3436 320.842 14.4063 320.924C14.469 321.014 14.5232 321.113 14.569 321.203C14.6136 321.302 14.6498 321.409 14.6775 321.508C14.6956 321.615 14.7137 321.721 14.7137 321.829C14.7137 321.935 14.6956 322.042 14.6775 322.15C14.6498 322.248 14.6136 322.355 14.569 322.445C14.5244 322.544 14.469 322.642 14.4063 322.724C14.3424 322.814 14.27 322.898 14.1893 322.971C13.8541 323.274 13.3936 323.447 12.9235 323.447C12.8065 323.447 12.6884 323.44 12.5799 323.415C12.4606 323.398 12.3521 323.365 12.2436 323.324Z" fill="#C9E5FF"/>
<path d="M12.2435 338.482C12.135 338.44 12.0361 338.392 11.9361 338.334C11.836 338.277 11.7455 338.211 11.6648 338.137C11.2488 337.759 11.0584 337.191 11.1766 336.666C11.1946 336.567 11.2308 336.46 11.2754 336.361C11.3212 336.271 11.3754 336.173 11.4381 336.082C11.5008 335.991 11.5828 335.909 11.6648 335.836C11.7455 335.762 11.836 335.695 11.9361 335.638C12.0361 335.58 12.135 335.532 12.2435 335.491C12.352 335.45 12.4604 335.417 12.5786 335.401C12.6871 335.376 12.8052 335.368 12.9222 335.368C13.3936 335.368 13.8541 335.541 14.188 335.844C14.5231 336.14 14.7124 336.56 14.7124 336.986C14.7124 337.093 14.6944 337.199 14.6763 337.298C14.6485 337.404 14.6123 337.504 14.5677 337.601C14.5231 337.7 14.4677 337.798 14.405 337.889C14.3411 337.971 14.2688 338.053 14.188 338.136C14.1072 338.209 14.0156 338.276 13.9168 338.333C13.8167 338.391 13.7178 338.439 13.6081 338.481C13.5008 338.521 13.3815 338.554 13.2742 338.57C13.156 338.596 13.0379 338.603 12.921 338.603C12.8041 338.603 12.6943 338.596 12.5774 338.57C12.4604 338.555 12.352 338.522 12.2435 338.482Z" fill="#C9E5FF"/>
<path d="M12.2436 353.639C12.1351 353.598 12.0362 353.549 11.9361 353.491C11.8361 353.433 11.7456 353.359 11.6649 353.285C11.5841 353.21 11.5021 353.129 11.4382 353.038C11.3743 352.956 11.3213 352.858 11.2755 352.759C11.2309 352.661 11.1947 352.562 11.1766 352.455C11.0597 351.929 11.2489 351.37 11.6649 350.993C11.7456 350.919 11.8361 350.853 11.9361 350.795C12.0362 350.738 12.1351 350.689 12.2436 350.648C12.3521 350.606 12.4605 350.573 12.5787 350.549C12.6956 350.533 12.8053 350.525 12.9223 350.525C13.0392 350.525 13.1573 350.533 13.2755 350.549C13.3828 350.573 13.5022 350.606 13.6094 350.648C13.7179 350.688 13.818 350.737 13.918 350.795C14.0169 350.853 14.1085 350.919 14.1893 350.993C14.27 351.066 14.3436 351.157 14.4063 351.239C14.469 351.33 14.5232 351.42 14.569 351.518C14.6136 351.617 14.6498 351.724 14.6775 351.822C14.6956 351.929 14.7137 352.035 14.7137 352.143C14.7137 352.249 14.6956 352.356 14.6775 352.455C14.6498 352.562 14.6136 352.661 14.569 352.759C14.5244 352.858 14.469 352.956 14.4063 353.038C14.3424 353.129 14.27 353.212 14.1893 353.285C14.1085 353.358 14.0169 353.433 13.918 353.491C13.818 353.548 13.7192 353.597 13.6094 353.639C13.5022 353.68 13.3828 353.713 13.2755 353.73C13.1573 353.754 13.0392 353.762 12.9223 353.762C12.8053 353.762 12.6956 353.754 12.5787 353.73C12.4605 353.713 12.3521 353.68 12.2436 353.639Z" fill="#C9E5FF"/>
<path d="M28.9281 308.166C28.8196 308.124 28.7111 308.075 28.6207 308.018C28.5207 307.961 28.4303 307.895 28.3495 307.821C28.2579 307.738 28.1868 307.656 28.1229 307.574C28.059 307.483 28.0047 307.385 27.9589 307.295C27.9143 307.196 27.8781 307.089 27.86 306.99C27.8142 306.777 27.8142 306.563 27.86 306.35C27.8781 306.251 27.9143 306.144 27.9589 306.045C28.0035 305.955 28.059 305.856 28.1229 305.766C28.1856 305.684 28.2579 305.602 28.3495 305.528C28.4303 305.446 28.5207 305.38 28.6207 305.322C28.7111 305.264 28.8196 305.215 28.9281 305.174C29.0366 305.134 29.1451 305.101 29.2633 305.085C29.3718 305.059 29.4899 305.052 29.6068 305.052C29.7238 305.052 29.842 305.059 29.9589 305.085C30.0674 305.101 30.1855 305.134 30.294 305.174C30.4025 305.215 30.5026 305.264 30.6014 305.322C30.7015 305.379 30.7919 305.445 30.8739 305.528C31.1994 305.824 31.3887 306.242 31.3887 306.669C31.3887 306.777 31.3803 306.883 31.3622 306.99C31.3345 307.089 31.2983 307.196 31.2537 307.295C31.2078 307.385 31.1536 307.483 31.0909 307.574C31.0282 307.656 30.9558 307.738 30.8751 307.821C30.7931 307.895 30.7027 307.961 30.6027 308.018C30.5038 308.075 30.4038 308.124 30.2953 308.166C30.1868 308.206 30.0686 308.239 29.9601 308.264C29.842 308.281 29.725 308.289 29.6081 308.289C29.4912 308.289 29.373 308.281 29.2645 308.264C29.1451 308.24 29.0366 308.207 28.9281 308.166Z" fill="#C9E5FF"/>
<path d="M28.9282 323.324C28.8197 323.283 28.7112 323.234 28.6208 323.176C28.5207 323.118 28.4303 323.052 28.3496 322.97C28.258 322.895 28.1868 322.813 28.1229 322.731C28.059 322.64 28.0048 322.543 27.959 322.452C27.9144 322.353 27.8782 322.246 27.8601 322.148C27.8143 321.935 27.8143 321.721 27.8601 321.508C27.8782 321.409 27.9144 321.302 27.959 321.212C28.0036 321.113 28.059 321.015 28.1229 320.924C28.1856 320.842 28.258 320.76 28.3496 320.677C28.4303 320.603 28.5207 320.537 28.6208 320.48C28.7112 320.423 28.8197 320.374 28.9282 320.332C29.0367 320.291 29.1452 320.258 29.2634 320.234C29.3719 320.217 29.49 320.209 29.6069 320.209C29.7239 320.209 29.8421 320.217 29.959 320.234C30.0675 320.258 30.1856 320.291 30.2941 320.332C30.4026 320.373 30.5027 320.422 30.6015 320.48C30.7016 320.538 30.792 320.603 30.874 320.677C30.9548 320.76 31.0271 320.842 31.0898 320.924C31.1537 321.014 31.2067 321.113 31.2526 321.212C31.2972 321.302 31.3333 321.409 31.361 321.508C31.3791 321.615 31.3876 321.721 31.3876 321.829C31.3876 322.256 31.1983 322.675 30.8728 322.971C30.7908 323.053 30.7004 323.119 30.6003 323.177C30.5015 323.234 30.4014 323.283 30.2929 323.325C30.1844 323.366 30.0663 323.399 29.9578 323.416C29.8396 323.44 29.7227 323.448 29.6057 323.448C29.4888 323.448 29.3707 323.441 29.2622 323.416C29.1453 323.398 29.0367 323.365 28.9282 323.324Z" fill="#C9E5FF"/>
<path d="M28.9282 338.481C28.8197 338.44 28.7112 338.392 28.6208 338.334C28.5207 338.277 28.4303 338.211 28.3496 338.136C28.258 338.062 28.1868 337.972 28.1229 337.89C28.059 337.8 28.0048 337.702 27.959 337.602C27.9144 337.512 27.8782 337.405 27.8601 337.306C27.8143 337.093 27.8143 336.879 27.8601 336.666C27.8782 336.567 27.9144 336.46 27.959 336.361C28.0036 336.271 28.059 336.173 28.1229 336.082C28.1856 336 28.258 335.909 28.3496 335.835C28.4303 335.762 28.5207 335.695 28.6208 335.638C28.7112 335.58 28.8197 335.532 28.9282 335.49C29.0367 335.45 29.1452 335.417 29.2634 335.392C29.3719 335.375 29.49 335.359 29.6069 335.359C29.7239 335.359 29.8421 335.375 29.959 335.392C30.0675 335.417 30.1856 335.45 30.2941 335.49C30.4026 335.532 30.5027 335.58 30.6015 335.638C30.7016 335.695 30.792 335.762 30.874 335.835C30.9548 335.91 31.0271 336 31.0898 336.082C31.1537 336.172 31.2067 336.271 31.2526 336.361C31.2972 336.46 31.3333 336.567 31.361 336.666C31.3791 336.772 31.3876 336.879 31.3876 336.985C31.3876 337.093 31.3791 337.199 31.361 337.297C31.3333 337.404 31.2972 337.503 31.2526 337.601C31.2067 337.699 31.1525 337.798 31.0898 337.88C31.0271 337.97 30.9548 338.053 30.874 338.127C30.792 338.201 30.7016 338.274 30.6015 338.332C30.5027 338.391 30.4026 338.439 30.2941 338.48C30.1856 338.521 30.0675 338.554 29.959 338.57C29.8409 338.595 29.7239 338.603 29.6069 338.603C29.49 338.603 29.3719 338.595 29.2634 338.57C29.1452 338.555 29.0367 338.522 28.9282 338.481Z" fill="#C9E5FF"/>
<path d="M28.9282 353.639C28.8197 353.598 28.7112 353.549 28.6208 353.491C28.5207 353.433 28.4303 353.368 28.3496 353.294C28.258 353.211 28.1868 353.129 28.1229 353.038C28.059 352.956 28.0048 352.858 27.959 352.759C27.9144 352.661 27.8782 352.562 27.8601 352.455C27.8143 352.249 27.8143 352.036 27.8601 351.822C27.8782 351.723 27.9144 351.616 27.959 351.518C28.0036 351.42 28.059 351.33 28.1229 351.239C28.1856 351.149 28.258 351.066 28.3496 350.993C28.4303 350.919 28.5207 350.853 28.6208 350.795C28.7112 350.738 28.8197 350.68 28.9282 350.648C29.0367 350.606 29.1452 350.573 29.2634 350.549C29.3719 350.533 29.49 350.516 29.6069 350.516C29.7239 350.516 29.8421 350.533 29.959 350.549C30.0675 350.573 30.1856 350.606 30.2941 350.648C30.4026 350.68 30.5027 350.737 30.6015 350.795C30.7016 350.853 30.792 350.919 30.874 350.993C30.9548 351.066 31.0271 351.148 31.0898 351.239C31.1537 351.33 31.2067 351.42 31.2526 351.518C31.2972 351.617 31.3333 351.724 31.361 351.822C31.3791 351.929 31.3876 352.035 31.3876 352.143C31.3876 352.57 31.1983 352.989 30.8728 353.285C30.7908 353.358 30.7004 353.433 30.6003 353.491C30.5015 353.548 30.4014 353.597 30.2929 353.639C30.1844 353.68 30.0663 353.713 29.9578 353.73C29.8396 353.754 29.7227 353.762 29.6057 353.762C29.4888 353.762 29.3707 353.754 29.2622 353.73C29.1453 353.713 29.0367 353.68 28.9282 353.639Z" fill="#C9E5FF"/>
<path d="M675.69 157.904C674.107 175.59 668.01 192.929 658.014 208.172" stroke="#DAF5FF" stroke-width="15.1939" stroke-miterlimit="10" stroke-linecap="round"/>
<path d="M93.3973 88.9973C50.7572 107.934 18.7608 145.548 9.34305 187.81" stroke="#DAF5FF" stroke-width="15.1939" stroke-miterlimit="10" stroke-linecap="round"/>
<path d="M8 218.999C8 221.585 8 216.413 8 218.999Z" stroke="#DAF5FF" stroke-width="15.1939" stroke-miterlimit="10" stroke-linecap="round"/>
<path opacity="0.2" d="M296.658 228.268C435.999 218.28 566.125 243.757 549.947 304.17C535.173 359.344 334.585 377.706 207.582 374.215C70.3506 370.442 41.3873 323.529 46.148 301.795C50.9099 280.06 75.3355 244.132 296.658 228.268Z" fill="#0073CD"/>
<path d="M295.708 223.532C435.049 213.544 565.175 239.021 548.997 299.434C534.223 354.608 333.635 372.971 206.632 369.479C69.3996 365.706 40.4376 318.794 45.1983 297.06C49.9602 275.325 74.3857 239.396 295.708 223.532Z" fill="#00BD85"/>
<path d="M103.162 306.125C103.162 307.181 106.459 308.036 110.526 308.036C114.592 308.036 117.889 307.181 117.889 306.125C117.889 305.069 114.592 304.214 110.526 304.214C106.459 304.214 103.162 305.069 103.162 306.125Z" fill="#13C28E"/>
<path d="M120.782 313.738C120.782 314.511 122.843 315.139 125.385 315.139C127.926 315.139 129.988 314.511 129.988 313.738C129.988 312.965 127.928 312.337 125.385 312.337C122.843 312.337 120.782 312.964 120.782 313.738Z" fill="#13C28E"/>
<path d="M88.6979 301.466C88.6979 302.06 90.8172 302.541 93.4321 302.541C96.0469 302.541 98.1663 302.061 98.1663 301.466C98.1663 300.872 96.0469 300.39 93.4321 300.39C90.8172 300.39 88.6979 300.872 88.6979 301.466Z" fill="#13C28E"/>
<path d="M99.4539 313.276C99.4539 313.531 100.284 313.737 101.308 313.737C102.331 313.737 103.162 313.53 103.162 313.276C103.162 313.021 102.331 312.815 101.308 312.815C100.284 312.815 99.4539 313.022 99.4539 313.276Z" fill="#13C28E"/>
<path d="M184.687 334.557C184.687 335.217 186.631 335.752 189.026 335.752C191.423 335.752 193.365 335.218 193.365 334.557C193.365 333.898 191.421 333.362 189.026 333.362C186.631 333.362 184.687 333.897 184.687 334.557Z" fill="#13C28E"/>
<path d="M68.1856 327.509C68.1856 328.366 71.1295 329.062 74.7606 329.062C78.3917 329.062 81.3357 328.366 81.3357 327.509C81.3357 326.651 78.3917 325.956 74.7606 325.956C71.1283 325.956 68.1856 326.651 68.1856 327.509Z" fill="#13C28E"/>
<path d="M417.507 310.903C413.108 310.903 409.541 310.048 409.541 308.992C409.541 307.937 413.108 307.081 417.507 307.081C421.907 307.081 425.474 307.937 425.474 308.992C425.474 310.048 421.907 310.903 417.507 310.903Z" fill="#13C28E"/>
<path d="M372.986 309.112C372.986 309.441 374.811 309.709 377.062 309.709C379.313 309.709 381.138 309.441 381.138 309.112C381.138 308.782 379.313 308.515 377.062 308.515C374.811 308.515 372.986 308.782 372.986 309.112Z" fill="#13C28E"/>
<path d="M390.08 314.427C390.08 315.062 392.317 315.578 395.077 315.578C397.836 315.578 400.074 315.062 400.074 314.427C400.074 313.792 397.836 313.276 395.077 313.276C392.317 313.276 390.08 313.792 390.08 314.427Z" fill="#13C28E"/>
<path d="M379.17 327.509C375.755 327.509 372.986 326.787 372.986 325.896C372.986 325.006 375.755 324.284 379.17 324.284C382.585 324.284 385.353 325.006 385.353 325.896C385.353 326.787 382.585 327.509 379.17 327.509Z" fill="#13C28E"/>
<path d="M495.537 248.066C492.778 248.066 490.54 247.611 490.54 247.049C490.54 246.487 492.778 246.031 495.537 246.031C498.297 246.031 500.534 246.487 500.534 247.049C500.534 247.611 498.297 248.066 495.537 248.066Z" fill="#13C28E"/>
<path d="M421.113 318.19C421.113 319.048 423.173 319.743 425.714 319.743C428.256 319.743 430.317 319.048 430.317 318.19C430.317 317.333 428.257 316.637 425.714 316.637C423.173 316.638 421.113 317.333 421.113 318.19Z" fill="#13C28E"/>
<path d="M259.113 327.77C259.113 328.483 261.645 329.061 264.767 329.061C267.889 329.061 270.421 328.483 270.421 327.77C270.421 327.057 267.889 326.479 264.767 326.479C261.645 326.479 259.113 327.057 259.113 327.77Z" fill="#13C28E"/>
<path d="M256.219 332.59C256.219 333.016 254.159 333.361 251.617 333.361C249.074 333.361 247.014 333.016 247.014 332.59C247.014 332.164 249.074 331.819 251.617 331.819C254.159 331.819 256.219 332.164 256.219 332.59Z" fill="#13C28E"/>
<path d="M391.766 348.179C391.766 349.235 395.931 350.09 401.071 350.09C406.21 350.09 410.375 349.235 410.375 348.179C410.375 347.123 406.209 346.268 401.071 346.268C395.933 346.268 391.766 347.123 391.766 348.179Z" fill="#13C28E"/>
<path d="M421.113 343.029C421.113 343.364 422.349 343.636 423.874 343.636C425.399 343.636 426.636 343.364 426.636 343.029C426.636 342.694 425.399 342.422 423.874 342.422C422.349 342.422 421.113 342.694 421.113 343.029Z" fill="#13C28E"/>
<path d="M163.861 280.15C163.861 280.905 167.994 281.516 173.091 281.516C178.188 281.516 182.321 280.905 182.321 280.15C182.321 279.396 178.188 278.784 173.091 278.784C167.994 278.784 163.861 279.396 163.861 280.15Z" fill="#13C28E"/>
<path d="M159.441 283.759C159.441 284.236 161.325 284.621 163.648 284.621C165.972 284.621 167.855 284.236 167.855 283.759C167.855 283.283 165.971 282.897 163.648 282.897C161.325 282.897 159.441 283.284 159.441 283.759Z" fill="#13C28E"/>
<path d="M494.444 258.77C504.022 265.485 513.055 275.185 511.904 286.232C510.42 300.469 493.639 308.33 479.013 313.08C396.813 339.777 309.166 352.127 222.074 349.284C203.65 348.683 185.225 347.406 167.042 344.601C156.096 342.912 145.26 340.673 134.431 338.436C120.278 335.511 105.68 332.406 93.9613 324.524C82.2422 316.642 74.0854 302.626 78.2096 289.798C85.6117 266.774 131.09 260.124 152.755 255.548C211.961 243.041 272.549 236.131 333.271 234.885C384.359 233.836 451.363 228.566 494.444 258.77Z" stroke="#50D2AB" stroke-width="4.59044" stroke-miterlimit="10" stroke-linecap="round"/>
<path opacity="0.2" d="M378.414 248.864C427.915 253.17 460.035 272.526 426.039 290.073C376.598 315.592 205.87 310.049 153.67 303.208C98.4364 295.97 48.2483 280.782 82.2989 264.96C116.35 249.139 328.484 244.52 378.414 248.864Z" fill="#0073CD"/>
<path d="M374.456 171.337C374.456 171.337 391.394 71.343 384.771 65.7979C378.149 60.2527 311.477 43.639 230.356 42.2941C149.236 40.948 72.4725 65.4266 66.5737 70.4395C60.675 75.4513 76.9499 182.2 76.9499 182.2L374.456 171.337Z" fill="#3999FC"/>
<path d="M76.6545 180.234C74.616 166.62 62.7908 86.2023 65.7673 72.3125C76.8873 81.1456 96.7149 144.816 95.0597 175.907C94.9319 178.304 94.5172 180.169 93.8662 181.582L79.6612 182.1C78.6811 181.538 77.6768 180.915 76.6545 180.234Z" fill="#1D8AE1"/>
<path d="M358.381 132.648C361.663 94.4668 384.196 63.7925 385.727 68.5064L386.061 69.8404C387.541 82.9548 381.964 123.253 378.032 148.954C367.024 152.452 356.8 151.065 358.381 132.648Z" fill="#1D8AE1"/>
<path d="M381.393 253.208L383.071 266.665L377.84 268.792L370.127 258.015L381.393 253.208Z" fill="#002538"/>
<path d="M99.4055 265.256L91.7057 277.214L85.7274 275.515L88.517 260.948L99.4055 265.256Z" fill="#002538"/>
<path d="M385.728 199.845C394.044 226.33 392.01 250.145 388.462 254.716C384.914 259.285 293.643 288.858 232.232 290.911C170.82 292.963 85.9374 268.892 79.3491 263.002C72.762 257.112 74.3147 208.916 74.3147 208.916L385.728 199.845Z" fill="#1D8AE1"/>
<path d="M76.0242 253.592C121.216 270.408 170.016 279.292 219.387 279.498C219.972 279.5 220.551 279.501 221.137 279.501C280.333 279.501 338.8 267.026 391.269 243.31C391.231 243.756 391.19 244.189 391.146 244.614C338.678 268.212 280.275 280.618 221.137 280.618C220.554 280.618 219.965 280.617 219.382 280.614C170.105 280.409 121.396 271.589 76.2532 254.886C76.1736 254.468 76.0977 254.033 76.0242 253.592Z" fill="#3999FC"/>
<path d="M378.408 197.658C378.057 211.227 305.692 232.896 215.535 234.864C125.378 236.833 92.8402 217.416 82.8004 209.379C72.7606 201.343 86.3362 177.616 147.257 166.472C259.565 145.93 379.393 159.591 378.408 197.658Z" fill="#57A8FF"/>
<path d="M114.943 211.011C114.657 205.405 100.776 171.866 93.1801 162.221C85.5839 152.578 64.9969 152.316 60.1228 169.96C55.2476 187.604 72.5375 220.199 72.5375 220.199L114.943 211.011Z" fill="#3999FC"/>
<path opacity="0.2" d="M69.3803 186.483C75.009 178.865 84.3544 173.641 94.3423 172.373C95.5925 172.215 97.3659 172.002 99.1561 172.003C100.604 174.748 102.092 177.771 103.55 180.894C102.63 181.722 101.579 182.396 100.591 182.811C95.0754 185.13 89.6745 185.94 84.7028 189.499C77.824 194.422 73.0392 201.698 71.5286 209.535C71.2188 211.14 71.0198 212.825 70.0675 214.206C69.9843 214.326 69.8842 214.438 69.7853 214.552C68.0578 210.81 65.7914 205.531 63.801 199.69C64.5907 194.988 66.4604 190.435 69.3803 186.483Z" fill="#4FB3D3"/>
<path d="M114.943 211.011C115.511 218.12 110.614 225.167 103.574 228.316C96.5352 231.465 87.7974 230.85 80.9933 227.301C75.6648 224.52 71.5358 220.944 70.3495 214.301C69.1343 207.496 73.4213 200.373 80.0168 196.964C92.3351 190.596 113.802 196.741 114.943 211.011Z" fill="#1D8AE1"/>
<path d="M384.002 151.117C379.326 146.155 373.897 141.472 367.123 139.284C360.349 137.096 351.974 137.949 347.156 142.798C344.051 145.922 342.784 150.293 342.9 154.502C343.015 158.711 344.395 162.807 346.032 166.744C351.565 180.051 360.172 194.898 371.208 204.988C374.376 207.884 378.062 208.108 382.502 208.734C392.262 210.112 404.674 203.484 407.899 196.047C411.428 187.91 399.885 172.601 395.539 165.855C392.185 160.645 388.322 155.703 384.002 151.117Z" fill="#3999FC"/>
<path d="M393.847 210.455C385.189 212.325 375.252 209.633 369.901 203.686C358.587 191.107 373.997 170.938 392.714 175.786C412.779 180.981 415.784 205.713 393.847 210.455Z" fill="#1D8AE1"/>
<path d="M337.364 60.6666C321.917 87.6445 315.612 118.871 319.514 149.073" stroke="#70B5FF" stroke-width="1.09479" stroke-miterlimit="10" stroke-linecap="round" stroke-linejoin="round"/>
<path d="M290.856 55.4534C278.541 83.9328 274.794 115.428 280.127 145.641" stroke="#70B5FF" stroke-width="1.09479" stroke-miterlimit="10" stroke-linecap="round" stroke-linejoin="round"/>
<path d="M247.703 53.9595C237.905 84.0698 234.369 115.852 237.335 147.136" stroke="#70B5FF" stroke-width="1.09479" stroke-miterlimit="10" stroke-linecap="round" stroke-linejoin="round"/>
<path d="M129.26 162.61C131.496 129.249 122.717 95.343 104.347 66.386" stroke="#70B5FF" stroke-width="1.09479" stroke-miterlimit="10" stroke-linecap="round" stroke-linejoin="round"/>
<path d="M164.791 155.546C165.138 122.577 158.979 89.5591 146.692 58.5354" stroke="#70B5FF" stroke-width="1.09479" stroke-miterlimit="10" stroke-linecap="round" stroke-linejoin="round"/>
<path d="M195.907 152.001C195.993 119.393 196.078 86.787 196.163 54.1796" stroke="#70B5FF" stroke-width="1.09479" stroke-miterlimit="10" stroke-linecap="round" stroke-linejoin="round"/>
<path d="M353.19 140.064C348.603 142.032 345.576 146.321 344.496 150.823C343.415 155.327 344.063 160.034 345.271 164.512" stroke="#70B5FF" stroke-width="1.09479" stroke-miterlimit="10" stroke-linecap="round" stroke-linejoin="round"/>
<path d="M385.592 210.383C381.336 210.447 377.076 209.012 373.894 206.444" stroke="#3999FC" stroke-width="1.09479" stroke-miterlimit="10" stroke-linecap="round" stroke-linejoin="round"/>
<path d="M107.718 226.732C98.9739 231.53 87.0065 230.888 78.945 225.189" stroke="#3999FC" stroke-width="1.09479" stroke-miterlimit="10" stroke-linecap="round" stroke-linejoin="round"/>
<path opacity="0.3" d="M254.914 156.95C221.183 156.725 183.823 159.785 147.257 166.473C147.045 166.512 146.839 166.553 146.628 166.592C146.313 166.467 145.999 166.343 145.69 166.194C138.272 162.624 136.256 153.987 135.046 146.439C129.009 159.028 117.638 169.432 103.825 175.005C99.7829 176.636 95.5598 177.864 91.3465 179.087L81.168 182.043L80.1843 182.079C94.3363 154.358 108.489 126.637 122.641 98.9169C125.258 93.7901 127.995 88.5144 132.618 84.7336C138.429 79.9836 147.037 77.7131 150.545 71.3673C152.1 68.5536 152.387 65.3282 152.921 62.2177C153.985 56.0198 158.048 50.3081 165.478 49.7769C191.889 47.8898 221.15 61.6263 237.496 79.7678C249.148 92.6993 256.052 108.534 262.779 124.089C265.707 130.858 268.675 138.26 266.397 145.233C264.696 150.442 260.282 154.393 254.914 156.95Z" fill="#4FB3D3"/>
<path opacity="0.2" d="M289.863 342.15C292.646 342.727 296.146 344.193 295.709 346.755C295.33 348.968 292.29 349.725 289.836 349.947C272.878 351.485 255.67 350.726 238.955 347.701C235.259 347.032 230.821 345.523 230.404 342.12C229.95 338.411 234.815 336.023 238.916 335.84C247.746 335.447 254.247 334.772 262.963 336.577C271.93 338.435 280.896 340.293 289.863 342.15Z" fill="#0073CD"/>
<path opacity="0.2" d="M163.412 333.449C163.191 327.201 190.368 325.548 188.961 334.818C188.708 336.481 187.184 337.806 185.462 338.415C183.741 339.023 181.841 339.036 179.995 338.967C176.463 338.835 172.943 338.439 169.482 337.781C166.757 337.264 163.501 335.977 163.412 333.449Z" fill="#0073CD"/>
<path opacity="0.2" d="M199.777 234.992C197.115 234.976 194.509 234.941 191.959 234.886C182.349 230.581 164.697 222.07 153.918 213.191C138.532 200.518 134.866 181.813 144.6 173.103L240.202 157.056C243.565 156.986 246.901 156.947 250.204 156.939C264.328 159.812 309.073 169.311 312.521 175.048C316.62 181.868 304.379 186.155 304.379 186.155L336.48 219.093C316.41 224.527 290.273 229.33 260.599 232.203L249.746 225.779L210.246 207.307L199.777 234.992Z" fill="#4FB3D3"/>
<path d="M193.673 42.7509C199.384 41.268 205.214 39.773 211.149 39.9865C217.084 40.2001 223.25 42.419 226.492 46.9413C230.073 51.9356 229.403 58.4731 231.554 64.1037C233.273 68.6029 236.877 72.4844 241.47 74.7811C244.534 76.3134 247.987 77.1534 250.972 78.8116C253.956 80.4698 256.543 83.3339 256.21 86.498C256.035 88.1595 255.083 89.6654 254.041 91.0389C253 92.4134 251.834 93.7342 251.131 95.2763C250.428 96.8184 250.252 98.6683 251.191 100.102C252.13 101.536 254.415 102.263 255.916 101.301C254.204 103.872 250.645 105.332 247.522 104.347C245.881 108.645 242.479 112.377 237.578 113.316C228.961 114.967 220.637 109.454 211.845 109.006C207.936 108.807 204 109.621 200.117 109.169C193.681 108.422 188.224 104.234 184.786 99.2345C181.348 94.2348 179.616 88.4497 177.927 82.7578C175.776 75.5062 173.616 67.8658 175.638 60.5847C177.823 52.7285 185.097 44.9775 193.673 42.7509Z" fill="#002538"/>
<path d="M219.705 93.0355C227.775 94.7835 245.117 103.731 249.564 114.933C254.263 126.772 253.336 138.144 255.672 147.305C261.1 168.582 265.495 180.925 265.495 180.925L204.983 158.661L201.036 91.741L219.705 93.0355Z" fill="white"/>
<path opacity="0.2" d="M220.534 116.454C229.846 119.929 241.42 123.717 241.42 123.717C241.42 123.717 246.089 142.119 257.465 154.162C261.217 168.156 264.218 177.211 265.173 180.003C264.924 180.185 264.677 180.363 264.432 180.535L204.981 158.662L202.99 124.903C209.101 122.516 215.067 119.895 220.534 116.454Z" fill="#C2BED4"/>
<path d="M298.49 186.671C302.044 185.225 309.867 193.483 311.741 189.573C314.111 184.63 299.974 186.924 299.949 183.74C299.923 180.556 297.77 169.915 292.609 162.609C287.448 155.304 278.115 148.804 277.091 146.09C276.068 143.375 286.135 134.745 279.569 132.102C273.003 129.458 275.729 141.201 271.452 142.488C267.175 143.775 254.182 143.251 241.488 147.986C228.795 152.72 222.448 157.764 220.697 159.517C218.947 161.271 207.784 154.313 208.004 160.576C208.223 166.838 218.331 160.832 220.28 162.741C222.229 164.65 223.336 172.309 230.224 184.883C237.113 197.458 247.093 201.036 246.48 202.825C245.868 204.615 243.37 207.903 246.393 209.739C249.417 211.574 246.917 204.258 249.566 202.349C252.216 200.44 267.923 201.344 280.314 196.617C292.701 191.889 292.407 189.146 298.49 186.671Z" fill="#86B6F8"/>
<path d="M294.62 188.743C289.892 173.211 278.677 155.111 264.751 143.419C265.332 143.363 265.889 143.309 266.42 143.257C280.263 155.093 290.99 172.757 295.684 188.063C295.313 188.284 294.962 188.512 294.62 188.743Z" fill="#B9D5FB"/>
<path d="M224.159 156.724C236.554 169.907 246.34 185.135 252.867 201.432C252.434 201.496 252.03 201.563 251.665 201.635C245.183 185.513 235.488 170.45 223.218 157.405C223.51 157.187 223.823 156.96 224.159 156.724Z" fill="#B9D5FB"/>
<path d="M255.74 144.459C256.214 144.388 256.681 144.322 257.144 144.259C269.735 157.442 280.783 176.593 285.786 194.29C285.434 194.459 285.066 194.631 284.681 194.805C279.693 176.956 268.478 157.583 255.74 144.459Z" fill="#B9D5FB"/>
<path d="M246.679 147.531C246.37 147.223 246.051 146.911 245.727 146.598C246.157 146.474 246.584 146.357 247.012 146.242C247.2 146.426 247.389 146.611 247.571 146.793C261.865 161.056 272.124 178.903 276.997 197.728C276.616 197.841 276.234 197.949 275.851 198.053C271.033 179.381 260.856 161.677 246.679 147.531Z" fill="#B9D5FB"/>
<path d="M229.564 153.381C229.901 153.195 230.258 153.006 230.616 152.817C244.621 167.338 254.305 183.986 258.598 200.807C258.182 200.847 257.775 200.887 257.378 200.925C253.098 184.263 243.484 167.766 229.564 153.381Z" fill="#B9D5FB"/>
<path d="M260.621 180.334C255.763 169.852 248.838 159.42 239.615 148.709C239.99 148.561 240.374 148.413 240.761 148.266C249.952 158.973 256.867 169.413 261.733 179.908C263.22 183.118 266.615 192.093 268.809 199.559C268.409 199.625 268.01 199.689 267.612 199.749C265.427 192.358 262.049 183.414 260.621 180.334Z" fill="#B9D5FB"/>
<path d="M280.31 220.494C280.31 220.494 285.995 226.781 286.581 229.05C287.167 231.319 283.32 251.393 288.583 252.871C293.844 254.35 300.794 227.52 301.237 223.833C301.681 220.146 290.554 211.498 290.554 211.498L280.31 220.494Z" fill="#FDF5EB"/>
<path d="M297.724 217.959C296.754 219.408 296.127 221.16 295.889 222.448C295.448 224.842 295.888 227.481 297.6 229.41C298.146 230.025 298.839 230.529 299.601 230.919C300.515 227.541 301.117 224.833 301.237 223.833C301.413 222.372 299.77 220.132 297.724 217.959Z" fill="#FDCDD0"/>
<path d="M294.469 245.783C291.718 244.605 288.778 243.805 285.772 243.38C285.729 248.064 286.293 252.227 288.583 252.871C290.481 253.405 292.599 250.244 294.554 245.821C294.525 245.809 294.497 245.795 294.469 245.783Z" fill="#FDCDD0"/>
<path opacity="0.2" d="M295.633 215.875L290.191 224.816L294.974 244.841C292.907 249.768 290.619 253.444 288.581 252.871C283.319 251.393 287.166 231.319 286.58 229.05C285.994 226.781 280.309 220.494 280.309 220.494L290.552 211.498C290.552 211.498 293.051 213.439 295.633 215.875Z" fill="#CA666A"/>
<path d="M201.035 153.574C180.533 165.833 213.67 197.144 282.016 221.53L295.306 211.245C295.306 211.245 226.544 138.32 201.035 153.574Z" fill="#FF82A7"/>
<path opacity="0.2" d="M201.035 153.574C201.103 153.533 201.176 153.501 201.244 153.462C206.604 156.658 212.396 159.235 218.622 161.079C225.44 163.099 233.513 165.267 240.868 164.324C267.622 181.889 295.306 211.244 295.306 211.244L282.016 221.53C213.67 197.144 180.533 165.833 201.035 153.574Z" fill="#CA666A"/>
<path d="M76.8041 188.686C74.6473 190.477 75.32 191.863 73.1404 195.251C70.9608 198.637 68.6835 202.375 67.0319 201.96C67.0319 201.96 67.4322 210.239 66.2664 210.8C65.1019 211.362 63.971 206.258 63.971 206.258C63.971 206.258 62.4701 207.954 60.9391 200.67C60.9391 200.67 59.5514 199.954 59.3815 198.094C59.3815 198.094 57.0283 196.609 58.9523 192.11C60.8764 187.61 65.6492 184.777 72.6968 179.284C79.7456 173.792 76.8041 188.686 76.8041 188.686Z" fill="#FFB2A5"/>
<path d="M186.731 71.6936C194.824 74.9782 199.326 79.9747 201.035 81.7786C202.743 83.5824 204.981 158.661 204.981 158.661L140.931 167.329L136.968 124.881C136.968 124.881 123.996 155.657 121.793 159.431C119.589 163.205 77.6275 193.764 77.6275 193.764L62.7378 181.481L99.4334 149.552C99.4334 149.552 123.846 88.8998 127.499 84.6766C131.151 80.4533 158.054 70.4385 158.054 70.4385L186.731 71.6936Z" fill="#D287FD"/>
<path opacity="0.2" d="M204.666 148.745C199.493 152.288 188.285 159.27 181.272 158.534C171.025 157.458 142.45 101.228 142.45 101.228L204.531 144.717C204.58 146.143 204.625 147.49 204.666 148.745Z" fill="#00426F"/>
<path d="M180.93 66.8658L182.254 67.2031C186.708 68.3378 189.161 72.6541 187.628 76.6178C185.948 80.9571 183.874 85.6195 182.678 85.7225C180.429 85.9141 172.254 75.0746 172.254 75.0746C172.254 75.0746 162.912 85.9766 160.682 85.2515C159.442 84.8474 157.386 79.8093 155.81 75.4229C154.493 71.7626 156.55 67.8066 160.498 66.4058L180.93 66.8658Z" fill="white"/>
<path d="M204.168 98.377L195.629 77.9694C195.629 77.9694 187.102 82.3723 184.986 75.7286C183.101 69.8088 190.227 68.1178 194.283 70.3575C194.283 70.3575 183.688 50.3716 203.395 45.2766C223.102 40.1815 228.453 65.0993 229.778 71.1253C232.113 81.7371 224.767 88.2756 218.803 89.8407L220.619 96.2818C220.619 96.2818 222.28 101.907 216.422 103.129C208.616 104.758 204.168 98.377 204.168 98.377Z" fill="#FFB2A5"/>
<path d="M204.147 52.7111C204.147 52.7111 215.804 64.1552 227.988 64.2166C225.119 55.0615 218.625 41.9307 204.224 45.097L192.499 56.3484L196.03 62.8738C202.294 59.2847 204.147 52.7111 204.147 52.7111Z" fill="#C76470"/>
<path d="M209.408 73.6289C209.212 75.2017 207.648 76.333 205.916 76.1534C204.185 75.9749 202.94 74.5544 203.137 72.9805C203.333 71.4078 204.897 70.2764 206.629 70.456C208.361 70.6356 209.605 72.0561 209.408 73.6289Z" fill="#FF9F99"/>
<path d="M208.72 65.5724C208.774 66.6709 209.799 67.5219 211.008 67.4726C212.217 67.4233 213.154 66.4924 213.1 65.3939C213.045 64.2953 212.021 63.4443 210.811 63.4936C209.602 63.5429 208.666 64.4738 208.72 65.5724Z" fill="#002538"/>
<path d="M217.771 64.9635C217.825 66.062 218.85 66.913 220.059 66.8637C221.268 66.8144 222.205 65.8835 222.151 64.785C222.097 63.6864 221.072 62.8354 219.863 62.8847C218.654 62.934 217.717 63.865 217.771 64.9635Z" fill="#002538"/>
<path d="M212.427 74.377C213.933 75.3167 215.824 75.7307 217.635 75.5171" stroke="#002538" stroke-width="0.691358" stroke-miterlimit="10" stroke-linecap="round" stroke-linejoin="round"/>
<path d="M187.761 73.0441C188.735 72.4264 190.044 72.2676 191.161 72.6334C192.279 72.9981 193.177 73.8776 193.494 74.917" stroke="#002538" stroke-width="0.691358" stroke-miterlimit="10" stroke-linecap="round" stroke-linejoin="round"/>
<path d="M191.614 72.9958C191.291 73.5796 190.968 74.1634 190.646 74.7471" stroke="#002538" stroke-width="0.691358" stroke-miterlimit="10" stroke-linecap="round" stroke-linejoin="round"/>
<path d="M202.238 60.1817C203.999 58.6944 206.658 58.1478 208.953 58.8006" stroke="#002538" stroke-width="0.691358" stroke-miterlimit="10" stroke-linecap="round" stroke-linejoin="round"/>
<path d="M214.605 59.3438C215.988 57.5761 218.955 57.0383 220.978 58.1894" stroke="#002538" stroke-width="0.691358" stroke-miterlimit="10" stroke-linecap="round" stroke-linejoin="round"/>
<path d="M218.804 89.8409C214.941 91.1212 206.499 89.1213 206.499 89.1213C206.499 89.1213 212.321 93.4004 219.705 93.0346L218.804 89.8409Z" fill="#C76470"/>
<path d="M228.123 71.2852C227.927 72.8579 226.363 73.9893 224.631 73.8097C222.9 73.6312 221.654 72.2106 221.852 70.6368C222.048 69.064 223.612 67.9326 225.344 68.1123C227.075 68.2908 228.32 69.7113 228.123 71.2852Z" fill="#FF9F99"/>
<path d="M194.283 70.3575C195.775 71.3936 198.575 80.1752 199.382 79.2004C200.188 78.2268 196.031 62.8726 196.031 62.8726C196.031 62.8726 203.258 56.2793 203.048 50.3267C203.291 50.0091 214.039 62.9876 228.211 60.7742C228.211 60.7742 220.396 37.117 200.76 43.3336C181.124 49.5491 186.573 65.3906 186.573 65.3906L194.283 70.3575Z" fill="#002538"/>
<path d="M215.476 65.7969C215.476 65.7969 219.511 68.903 218.979 70.1647C218.789 70.6159 216.9 70.5688 216.9 70.5688" stroke="#002538" stroke-width="0.691358" stroke-miterlimit="10" stroke-linecap="round" stroke-linejoin="round"/>
<g opacity="0.53">
<path d="M237.467 88.5022C234.323 89.1276 231.552 88.3018 228.814 86.889C228.412 86.682 228.768 86.1376 229.173 86.3293C231.845 87.5921 234.349 88.6435 237.443 88.3489C237.541 88.3401 237.561 88.4836 237.467 88.5022Z" fill="#001D3A"/>
</g>
<path d="M188.762 51.7877C186.362 50.6443 183.415 50.4931 180.889 51.3814C178.362 52.2696 176.296 54.1841 175.366 56.4972C181.537 57.2497 186.093 56.8981 188.762 51.7877Z" fill="#0D3049"/>
<path d="M342.936 230.607C342.936 230.607 350.057 235.542 351.2 237.629C352.343 239.715 353.666 260.055 359.161 260.399C364.656 260.742 364.648 233.179 364.149 229.498C363.649 225.816 350.637 219.717 350.637 219.717L342.936 230.607Z" fill="#FDF5EB"/>
<path d="M359.247 224.512C358.668 226.125 358.499 227.96 358.595 229.264C358.769 231.685 359.864 234.163 362.017 235.684C362.703 236.169 363.506 236.515 364.345 236.736C364.382 233.258 364.284 230.496 364.149 229.498C363.95 228.038 361.786 226.2 359.247 224.512Z" fill="#FDCDD0"/>
<path d="M363.101 252.272C360.126 251.698 357.061 251.533 354.029 251.745C355.17 256.315 356.769 260.249 359.16 260.398C361.143 260.522 362.406 257.004 363.193 252.292C363.162 252.286 363.131 252.278 363.101 252.272Z" fill="#FDCDD0"/>
<path opacity="0.2" d="M356.684 222.919L353.645 232.755L363.357 251.25C362.587 256.477 361.288 260.531 359.161 260.399C353.666 260.056 352.344 239.715 351.2 237.629C350.057 235.542 342.936 230.607 342.936 230.607L350.636 219.716C350.636 219.716 353.557 221.086 356.684 222.919Z" fill="#CA666A"/>
<path d="M258.802 166.948C238.869 179.958 273.388 210.012 342.774 231.837L355.59 221.068C355.59 221.068 283.604 150.76 258.802 166.948Z" fill="#FF82A7"/>
<path opacity="0.2" d="M258.802 166.948C259.94 166.205 261.178 165.649 262.503 165.254C262.654 165.761 262.831 166.26 263.032 166.735C265.153 171.738 269.094 175.973 273.648 179.383C278.203 182.792 283.377 185.441 288.563 187.998C297.734 192.518 307.117 196.836 317.158 199.413C322.626 200.817 328.326 201.675 334.003 201.75C346.656 212.343 355.592 221.068 355.592 221.068L342.775 231.837C273.388 210.013 238.871 179.959 258.802 166.948Z" fill="#CA666A"/>
<path d="M192.111 18.3216C192.111 18.3216 198.529 22.0925 194.324 35.9155C192.158 43.0379 187.302 17.8397 187.302 17.8397L192.111 18.3216Z" fill="#002538"/>
<path d="M192.637 36.773C192.637 36.773 201.131 31.5115 202.804 38.8025C204.645 46.8207 192.446 44.6368 192.446 44.6368L192.637 36.773Z" fill="#FFB2A5"/>
<path d="M160.497 66.4059L159.424 44.8056C159.424 44.8056 150.115 47.8898 149.237 40.9482C148.455 34.7633 155.866 34.1664 159.493 37.0184C159.493 37.0184 152.637 15.4904 173.212 13.4248C193.787 11.3592 194.507 37.0009 194.712 43.2054C195.073 54.1337 186.545 59.5245 180.315 60.1729L180.932 66.867C180.932 66.867 181.206 73.7177 174.721 73.951C164.311 74.3244 160.497 66.4059 160.497 66.4059Z" fill="#FFB2A5"/>
<path d="M178.142 18.4104C179.723 17.5692 181.583 17.2253 183.414 17.2319C184.539 17.2363 185.657 17.3874 186.743 17.6492C189.558 20.3763 191.37 24.0782 192.533 27.8721C191.423 26.7013 190.222 25.6138 188.851 24.6981C185.724 22.6084 181.532 21.499 177.892 22.7212L174.831 22.2295C175.284 20.6184 176.563 19.2515 178.142 18.4104Z" fill="#C76470"/>
<path d="M193.077 41.5855C192.59 43.1232 190.822 44.0103 189.131 43.5667C187.438 43.1243 186.462 41.5186 186.95 39.982C187.437 38.4443 189.204 37.5572 190.896 38.0007C192.588 38.4432 193.565 40.0488 193.077 41.5855Z" fill="#FF9F99"/>
<path d="M155.167 38.6832C156.122 38.888 157.035 39.3502 157.605 40.0752C158.176 40.7992 158.356 41.8024 157.93 42.6052C157.41 43.5877 156.079 44.0761 154.892 43.9119C153.706 43.7476 152.678 43.0368 151.951 42.1693C151.162 41.2285 150.712 39.8409 151.816 38.9198C152.597 38.2681 154.239 38.4839 155.167 38.6832Z" fill="#FF9F99"/>
<path d="M184.222 35.002C184.073 36.1049 184.936 37.1093 186.15 37.2451C187.364 37.3809 188.469 36.5967 188.619 35.4938C188.768 34.3909 187.905 33.3866 186.691 33.2508C185.477 33.115 184.372 33.8991 184.222 35.002Z" fill="#002538"/>
<path d="M174.057 35.3384C173.907 36.4413 174.77 37.4456 175.984 37.5814C177.198 37.7172 178.304 36.933 178.453 35.8301C178.603 34.7272 177.74 33.7229 176.526 33.5871C175.312 33.4513 174.206 34.2344 174.057 35.3384Z" fill="#002538"/>
<path d="M152.498 38.6963C153.583 38.2297 154.915 38.2714 155.96 38.8058C157.005 39.3403 157.737 40.3534 157.861 41.4377" stroke="#4C2049" stroke-width="0.626437" stroke-miterlimit="10" stroke-linecap="round" stroke-linejoin="round"/>
<path d="M156.345 39.2373C155.916 39.7696 155.485 40.3019 155.056 40.8342" stroke="#4C2049" stroke-width="0.626437" stroke-miterlimit="10" stroke-linecap="round" stroke-linejoin="round"/>
<path d="M169.963 28.4767C172.026 27.2446 174.82 27.1044 177.02 28.1208" stroke="#002538" stroke-width="0.626437" stroke-miterlimit="10" stroke-linecap="round" stroke-linejoin="round"/>
<path d="M183.226 28.6781C184.959 27.1032 188.063 27.0188 189.894 28.4985" stroke="#002538" stroke-width="0.626437" stroke-miterlimit="10" stroke-linecap="round" stroke-linejoin="round"/>
<path d="M172.337 42.7422C171.85 44.2799 170.082 45.167 168.391 44.7235C166.698 44.281 165.722 42.6754 166.21 41.1388C166.697 39.6011 168.464 38.7139 170.156 39.1575C171.847 39.6 172.824 41.2056 172.337 42.7422Z" fill="#FF9F99"/>
<path d="M181.203 34.8071L182.798 38.7401C182.798 38.7401 185.001 39.164 184.075 40.8923" stroke="#002538" stroke-width="0.626437" stroke-miterlimit="10" stroke-linecap="round" stroke-linejoin="round"/>
<path d="M183.889 45.9456C181.317 46.364 179.324 45.9686 178.269 43.7957" stroke="#002538" stroke-width="0.626437" stroke-miterlimit="10" stroke-linecap="round" stroke-linejoin="round"/>
<path d="M180.314 60.1717L180.538 62.6097C169.666 63.4716 166.748 56.3646 166.748 56.3646C168.209 58.1663 173.191 61.0106 180.314 60.1717Z" fill="#C76470"/>
<path d="M260.376 317.887C260.376 317.887 265.118 327.171 267.629 329.012C270.14 330.853 297.283 337.845 296.257 344.071C295.231 350.296 257.966 342.812 253.124 341.257C248.281 339.702 243.564 323.525 243.564 323.525L260.376 317.887Z" fill="#D0E3FC"/>
<path d="M247.712 334.436C250.049 334.228 252.577 334.538 254.313 334.996C257.54 335.848 260.592 337.74 262.065 340.555C262.534 341.452 262.786 342.442 262.857 343.439C258.144 342.536 254.437 341.679 253.124 341.257C251.203 340.642 249.306 337.727 247.712 334.436Z" fill="#FDF5EB"/>
<path d="M284.2 346.266C284.231 342.79 284.839 339.325 285.947 335.999C291.816 338.51 296.702 341.363 296.255 344.071C295.885 346.317 290.785 346.774 284.202 346.372C284.203 346.337 284.2 346.301 284.2 346.266Z" fill="#FDF5EB"/>
<path d="M200.583 294.813C200.583 294.813 192.527 301.969 191.453 304.733C190.379 307.497 192.169 333.077 185.367 334.273C178.566 335.469 173.911 301.055 173.911 296.388C173.911 291.723 189.126 282.291 189.126 282.291L200.583 294.813Z" fill="#D0E3FC"/>
<path d="M179.186 289.482C180.181 291.414 180.703 293.682 180.805 295.321C180.996 298.37 180.05 301.616 177.619 303.815C176.844 304.516 175.901 305.061 174.89 305.455C174.256 301.116 173.91 297.655 173.91 296.389C173.911 294.541 176.302 291.944 179.186 289.482Z" fill="#FDF5EB"/>
<path d="M179.072 324.679C182.689 323.547 186.487 322.913 190.309 322.754C189.659 328.618 188.327 333.753 185.367 334.274C182.913 334.705 180.739 330.49 178.961 324.717C178.998 324.705 179.035 324.69 179.072 324.679Z" fill="#FDF5EB"/>
<path opacity="0.2" d="M184.339 285.503C187.001 283.609 189.126 282.292 189.126 282.292L200.583 294.813C200.583 294.813 192.527 301.969 191.453 304.733C190.379 307.497 192.169 333.077 185.367 334.273C184.083 334.498 182.877 333.453 181.764 331.583C186.539 320.279 188.719 296.834 188.719 296.834C187.259 293.058 185.799 289.28 184.339 285.503Z" fill="#00426F"/>
<path d="M180.148 162.021L204.981 158.661C204.981 158.661 295.621 187.273 301.674 204.461C307.727 221.648 200.944 297.745 200.944 297.745C200.944 297.745 187.46 291.362 184.179 282.637L255.412 213.363L194.985 195.341L180.148 162.021Z" fill="#FEC92E"/>
<path opacity="0.2" d="M207.765 281.477L203.976 263.383L255.411 213.363L208.639 199.413L192.491 176.918L198.174 172.419C198.174 172.419 226.465 197.028 240.793 200.326C251.063 202.69 283.669 206.813 301.32 208.961C293.112 232.057 200.944 297.744 200.944 297.744C200.944 297.744 197.652 296.185 193.927 293.556L207.765 281.477Z" fill="#DE720A"/>
<path opacity="0.2" d="M263.308 323.175L252.768 328.413C252.768 328.413 265.331 338.929 268.547 340.682C270.516 341.755 285.182 343.12 296.258 344.017C296.256 344.035 296.259 344.053 296.257 344.071C295.231 350.296 257.966 342.812 253.124 341.257C248.281 339.702 243.564 323.525 243.564 323.525L260.377 317.886C260.377 317.886 261.695 320.466 263.308 323.175Z" fill="#00426F"/>
<path d="M140.931 167.329C141.515 174.646 143.018 184.419 151.431 191.651C160.517 199.46 211.995 247.078 211.995 247.078L239.494 324.596C239.494 324.596 255.458 327.219 265.443 318.275C265.443 318.275 240.91 241.047 237.63 234.048C234.35 227.047 180.148 162.022 180.148 162.022L140.931 167.329Z" fill="#FEC92E"/>
<path d="M152.593 86.8244C152.593 86.8244 150.803 82.2419 150.582 80.472C150.362 78.7021 152.568 74.6782 151.98 72.9083C151.391 71.1373 147.198 71.5403 147.198 71.5403C147.198 71.5403 144.845 68.4737 143.447 68.7595C142.05 69.0454 142.59 70.4342 141.854 70.7562C141.119 71.0782 139.718 68.8077 138.727 70.5459C137.735 72.2851 137.735 72.7791 136.485 72.5721C135.235 72.3651 134.253 73.5107 133.958 75.7439C133.664 77.9771 132.145 75.964 132.218 78.8719C132.292 81.7797 141.388 92.2206 141.388 92.2206L152.593 86.8244Z" fill="#FFB2A5"/>
<path d="M242.451 123.042C242.451 123.042 194.187 155.05 182.065 152.506C169.943 149.962 137.13 92.1464 137.13 92.1464L154.471 85.7261L186.421 127.928L227.158 103.305C228.494 103.04 242.451 123.042 242.451 123.042Z" fill="white"/>
<path opacity="0.2" d="M251.194 324.49C244.793 325.461 239.494 324.595 239.494 324.595L239.493 324.591L228.036 292.294C234.311 301.217 245.552 316.727 251.194 324.49Z" fill="#DE720A"/>
<path opacity="0.2" d="M196.755 148.914C190.466 151.594 185.118 153.146 182.065 152.506C175.485 151.125 162.81 133.459 152.594 117.595C166.708 130.88 190.627 151.144 196.755 148.914Z" fill="#C2BED4"/>
<path opacity="0.2" d="M151.431 191.651C143.017 184.419 141.515 174.646 140.931 167.329L147.257 166.472L183.009 220.352C169.625 208.05 155.747 195.36 151.431 191.651Z" fill="#DE720A"/>
<path opacity="0.2" d="M142.45 111.239L136.968 124.88L140.931 167.329L147.257 166.472L142.45 111.239ZM120.123 158.895L126.656 148.91C124.43 153.975 122.521 158.182 121.793 159.431C119.589 163.205 77.6275 193.764 77.6275 193.764L72.5377 189.565L120.123 158.895Z" fill="#D287FD"/>
<path d="M248.728 111.613C251.491 114.355 251.406 114.465 252.514 116.73C253.622 118.995 252.236 119.162 253.992 121.175C255.746 123.188 252.422 123.021 253.992 125.201C255.561 127.382 255.73 129.786 254.261 130.891C252.791 131.996 250.757 133.758 250.25 132.668C249.743 131.577 251.682 127.299 251.682 127.299C251.682 127.299 250.019 129.48 248.82 129.229C247.619 128.977 250.574 121.93 250.574 121.93C250.574 121.93 248.755 124.362 248.048 122.769C247.342 121.175 249.229 115.929 249.229 115.929C249.229 115.929 247.294 110.188 248.728 111.613Z" fill="#FFB2A5"/>
<path d="M155.609 27.5369C150.329 25.9543 145.992 21.7496 144.861 16.8046C146.241 17.3665 148.084 17.1737 149.526 16.7608C148.298 15.5725 147.954 13.7719 148.11 12.1477C148.873 13.3316 150.675 13.6909 152.115 13.2769C153.554 12.8629 154.685 11.852 155.643 10.7918C156.602 9.7316 157.461 8.57831 158.627 7.7065C160.218 6.51708 162.659 6.11731 164.709 6.31007C162.914 4.9465 162.011 3.40003 162.059 1.27417C163.603 2.49755 165.853 2.63993 167.889 2.43512C169.925 2.23031 171.956 1.74074 173.994 1.92912C177.001 2.20841 179.599 3.91041 180.749 6.45026C181.157 4.87641 180.814 3.43179 179.968 2.00907C181.298 2.61145 182.362 3.68807 182.877 4.95636C183.391 6.22465 183.201 7.73498 182.617 8.97808C185.788 7.32536 189.802 7.08003 193.188 8.33407C195.304 9.11826 197.135 10.4928 197.677 12.5113C195.922 11.7238 193.526 11.4807 191.79 12.3032C193.436 12.5146 194.965 13.3875 195.889 14.6426C196.755 15.8178 197.074 17.2427 197.5 18.6019C197.925 19.9611 198.531 21.3641 199.764 22.2272C200.996 23.0902 202.763 22.9489 203.694 21.8154C203.984 24.0332 201.653 25.9893 199.215 26.2752C196.778 26.5621 194.373 25.6049 192.26 24.4625C190.148 23.3191 188.139 21.9523 185.796 21.2754C183.454 20.5985 180.602 20.7716 178.918 22.3991C179.452 24.6312 178.879 26.8589 177.278 28.6201C174.754 31.3965 170.3 32.1927 166.408 31.517C162.515 30.8412 159.373 28.665 155.609 27.5369Z" fill="#002538"/>
<path d="M152.25 24.9226L155.7 35.4642C155.7 35.4642 158.253 36.1214 159.623 37.5956C160.992 39.0708 161.94 42.8023 163.098 42.994C164.257 43.1857 163.437 38.6185 163.393 37.1838C163.348 35.749 168.997 34.0941 168.787 28.3528C168.576 22.6105 152.25 24.9226 152.25 24.9226Z" fill="#002538"/>
<path opacity="0.2" d="M454.655 201.719C461.3 201.501 486.414 210.605 482.808 214.62C479.202 218.634 427.555 219.523 424.525 215.818C421.494 212.113 448.338 201.927 454.655 201.719Z" fill="#0073CD"/>
<path d="M450.825 163.82L454.92 204.342H453.671L446.943 164.024L450.825 163.82Z" fill="#002538"/>
<path d="M467.74 140.743L459.003 165.15L438.938 166.906L428.134 144.173L467.74 140.743Z" fill="#F9828A"/>
<path opacity="0.2" d="M459.853 162.777L437.171 163.187L435.182 159.002L461.799 157.339L459.853 162.777Z" fill="#CA666A"/>
<path d="M428.129 144.17C433.294 145.931 438.875 146.748 444.514 146.64L445.588 146.61C446.067 146.59 446.556 146.561 447.035 146.531C447.394 146.511 447.753 146.482 448.112 146.452C448.123 146.452 448.134 146.452 448.134 146.452C448.276 146.433 448.406 146.423 448.538 146.413C449.792 146.295 451.05 146.128 452.29 145.911C452.651 145.852 453.024 145.793 453.387 145.714C458.384 144.78 463.252 143.106 467.739 140.745C463.232 139.456 458.707 138.709 454.182 138.532C453.827 138.512 453.47 138.502 453.101 138.502C451.555 138.463 450.015 138.502 448.469 138.61C448.426 138.61 448.382 138.61 448.339 138.62C448.22 138.62 448.1 138.63 447.98 138.65C447.741 138.66 447.49 138.679 447.25 138.709C446.727 138.748 446.204 138.808 445.68 138.867C445.319 138.916 444.97 138.955 444.608 139.005C439.047 139.801 433.526 141.503 428.129 144.17Z" fill="#002538"/>
<path d="M429.02 156.969L468.281 154.199L467.447 158.171L464.573 158.241L477.528 213.77H475.792L461.187 158.465L435.859 159.751L429.593 213.77H428.292L432.308 159.937L429.959 160.061L429.02 156.969Z" fill="#FEC92E"/>
<path d="M428.698 11.3143C429.205 15.9351 431.229 20.1353 433.856 23.9632C438.478 30.6978 445.045 36.0546 450.004 42.5592C454.517 48.479 457.394 55.276 458.881 62.4662C462.027 77.667 458.877 93.2742 454.736 108.533C463.109 93.6641 471.132 78.2289 472.83 61.8025C474.47 45.9205 469.477 30.0341 459.523 17.6436C454.793 11.7578 448.649 5.71649 441.472 2.24787C436.99 0.0814915 432.188 -0.144127 429.26 4.74282C428.161 6.57844 428.488 9.3954 428.698 11.3143Z" fill="#00BD85"/>
<path d="M413.271 46.6193C416.766 42.5954 423.189 43.3139 427.443 45.0652C432.949 47.3279 436.92 51.7352 440.036 56.2717C444.264 62.4499 446.914 69.4649 448.466 76.6968C450.211 84.7939 450.743 93.1965 450.543 101.549C450.497 103.32 450.386 105.101 450.253 106.872C450.159 109.006 450.033 111.142 449.895 113.277C449.621 117.547 449.29 121.826 449.025 126.096C448.996 126.628 448.956 127.169 448.927 127.7C448.744 130.73 448.593 133.771 448.519 136.8C448.496 137.4 448.482 138.01 448.47 138.611C448.427 141.217 448.439 143.815 448.538 146.413C448.408 146.423 448.276 146.433 448.134 146.452C448.112 146.157 448.103 145.862 448.092 145.567C448.093 145.548 448.094 145.528 448.086 145.508C447.983 143.255 447.959 140.963 447.98 138.651C448.006 136.27 448.089 133.85 448.194 131.419C448.628 122.26 449.54 112.814 449.842 103.517C449.825 88.3654 441.089 75.2598 427.232 67.9206C420.711 64.4662 405.285 55.8281 413.271 46.6193Z" fill="#002538"/>
<path d="M465.56 51.0659C466.74 58.6121 466.376 66.8373 464.411 76.194C462.587 84.9602 459.553 93.7068 456.626 102.159C456.334 103.015 456.032 103.89 455.728 104.757C454.662 107.856 453.582 111.014 452.59 114.153C451.313 118.206 449.974 122.801 448.926 127.701C448.662 128.921 448.417 130.161 448.193 131.42C447.777 133.801 447.454 136.241 447.248 138.711C447.023 141.298 446.947 143.916 447.032 146.532C447.391 146.513 447.751 146.483 448.11 146.453C448.099 146.158 448.1 145.863 448.089 145.569C448.091 145.549 448.092 145.529 448.083 145.509C448.05 143.197 448.135 140.895 448.338 138.623C448.384 138.012 448.439 137.402 448.516 136.802C449.422 128.587 451.595 120.784 453.634 114.37C454.643 111.152 455.752 107.905 456.855 104.728C457.119 103.941 457.394 103.164 457.657 102.396C458.429 100.173 459.202 97.9399 459.954 95.6859C460.591 93.8361 461.196 91.9665 461.78 90.098C461.792 90.0783 461.793 90.0586 461.806 90.0389C463.228 85.5035 464.523 80.909 465.483 76.3133C467.457 66.8483 467.839 58.5245 466.634 50.871C465.231 41.947 461.575 34.0667 456.065 28.0648C455.885 27.8677 455.54 27.8578 455.309 28.0352C455.068 28.2127 455.024 28.527 455.214 28.7242C460.607 34.5859 464.177 42.3193 465.56 51.0659Z" fill="#002538"/>
<path d="M468.411 101.817C472.326 96.3179 477.083 91.3028 480.632 85.5988C483.484 81.0141 488.212 72.3387 484.12 67.776C474.096 56.5991 462.432 87.8561 460.784 92.915C458.935 98.5905 458.033 104.282 457.901 110.084C457.806 114.226 457.871 118.285 457.188 122.363C459.87 115.137 463.739 108.383 468.411 101.817Z" fill="#D287FD"/>
<path d="M452.29 145.911C452.651 145.852 453.024 145.793 453.387 145.714C453.588 143.313 453.852 140.923 454.182 138.532C454.982 132.609 456.179 126.715 457.751 120.891C462.217 104.282 469.717 88.2361 479.967 73.5073C480.135 73.2708 480.061 72.9663 479.811 72.8381C479.572 72.7001 479.23 72.7888 479.061 73.0254C469.492 86.7696 462.293 101.666 457.721 117.093C455.625 124.138 454.073 131.291 453.102 138.502C452.756 140.972 452.485 143.442 452.29 145.911Z" fill="#002538"/>
<path d="M403.671 80.5663C404.963 83.5672 406.792 86.3064 409.051 88.751C413.648 93.7245 419.789 97.2227 425.389 101.185C432.948 106.532 440.345 113.918 443.539 122.55C443.203 113.893 444.396 105.03 442.039 96.6586C440.246 90.2898 436.042 84.9965 430.731 80.7722C425.376 76.5128 417.888 71.6379 410.994 69.5471C398.91 65.8824 401.755 76.1174 403.671 80.5663Z" fill="#D287FD"/>
<path d="M423.734 87.2528C431.477 95.8219 437.22 105.927 440.709 116.788C443.013 123.941 444.339 131.428 444.607 139.004C444.699 141.543 444.661 144.09 444.514 146.639L445.588 146.609C445.748 144.021 445.778 141.444 445.678 138.866C445.488 133.15 444.686 127.482 443.321 121.973C440.094 108.907 433.717 96.697 424.594 86.5934C424.415 86.3864 424.069 86.3766 423.829 86.554C423.599 86.7314 423.554 87.0458 423.734 87.2528Z" fill="#002538"/>
<path opacity="0.2" d="M368.464 372.884L435.248 412.42L701 311.446L628.942 286.269L368.464 372.884Z" fill="#0073CD"/>
<path d="M439.123 385.079C439.633 386.062 431.911 401.455 431.911 401.455H427.737V385.079H439.123Z" fill="#002538"/>
<path d="M668.932 290.454C668.421 291.437 676.144 306.83 676.144 306.83H680.318V290.454H668.932Z" fill="#002538"/>
<path d="M386.712 356.508C387.222 357.49 379.5 372.884 379.5 372.884H375.326V356.508H386.712Z" fill="#002538"/>
<path d="M372.164 360.141L372.652 320.107L621.998 237.195L689.516 257.609L686.655 293.523L431.91 392.181L372.164 360.141Z" fill="#EDF6FF"/>
<path d="M431.91 392.181L435.248 357.767L372.652 320.106L372.164 360.141L431.91 392.181Z" fill="#DBECFF"/>
<path d="M689.516 257.609L435.248 357.768L431.91 392.181L686.655 293.523L689.516 257.609Z" fill="#C1DFFF"/>
<path d="M459.238 316.205L524.713 316.864L669.58 257.609L610.42 247.317L459.238 316.205Z" fill="#DBECFF"/>
<path d="M439.123 184.095L601.67 134.09L606.674 135.169V153.455L615.37 161.567L619.181 258.756L459.238 316.205L442.886 307.544L439.123 184.095Z" fill="#002538"/>
<path d="M611.887 162.135L461.783 212.563L452.558 204.802L605.087 155.707L611.887 162.135Z" fill="#0D3049"/>
<path d="M440.059 184.488L444.059 185.67L605.087 136.165L601.635 135.169L440.059 184.488Z" fill="#0D3049"/>
<path opacity="0.2" d="M513.53 225.843L476.44 237.195L477.66 261.434L514.312 249.292L513.53 225.843Z" fill="#002538"/>
<path opacity="0.2" d="M444.068 188.136L446.006 199.605L457.385 212.584L458.457 313.312L444.791 305.519L440.443 186.375L444.068 188.136Z" fill="#002538"/>
</svg>
