<svg width="48" height="43" viewBox="0 0 48 43" fill="none" xmlns="http://www.w3.org/2000/svg">
<path d="M17.842 31.0144L17.8422 31.0109L17.8176 31.0365C17.8258 31.0293 17.8336 31.0217 17.842 31.0144ZM16.6813 37.423V33.5682C16.6813 32.7601 16.9645 32.0191 17.4352 31.4357L15.6264 33.3236C15.6084 33.3424 15.5869 33.3574 15.563 33.3677C15.5392 33.378 15.5135 33.3835 15.4875 33.3838C15.4615 33.384 15.4357 33.3791 15.4116 33.3693C15.3876 33.3595 15.3657 33.3449 15.3473 33.3266L11.7036 29.6828C11.6303 29.6096 11.531 29.5684 11.4274 29.5684C11.3238 29.5684 11.2245 29.6096 11.1512 29.6828L7.62993 33.2043C7.5567 33.2775 7.51556 33.3769 7.51556 33.4805C7.51556 33.584 7.5567 33.6834 7.62993 33.7566L13.1465 39.2732L13.1467 39.273L14.384 40.5103C14.5291 40.6554 14.7014 40.7705 14.891 40.8491C15.0805 40.9276 15.2837 40.968 15.4889 40.968C15.6941 40.968 15.8973 40.9276 16.0869 40.8491C16.2765 40.7705 16.4487 40.6554 16.5938 40.5103L16.6815 40.4226L16.6813 37.423ZM40.3891 33.2041L36.8678 29.6826C36.7946 29.6094 36.6952 29.5682 36.5917 29.5682C36.4881 29.5682 36.3887 29.6094 36.3155 29.6826L32.6719 33.3262C32.6535 33.3446 32.6316 33.3591 32.6075 33.369C32.5834 33.3788 32.5575 33.3837 32.5315 33.3834C32.5054 33.3831 32.4797 33.3775 32.4558 33.3672C32.432 33.3568 32.4104 33.3417 32.3924 33.3228L30.3426 31.1734L30.3428 31.1742C30.9757 31.8101 31.3306 32.671 31.3295 33.5682V40.4144L31.4252 40.5101C31.5703 40.6552 31.7426 40.7703 31.9322 40.8489C32.1217 40.9274 32.3249 40.9678 32.5301 40.9678C32.7353 40.9678 32.9385 40.9274 33.1281 40.8489C33.3177 40.7703 33.4899 40.6552 33.635 40.5101L34.8723 39.2728L34.8725 39.273L40.3891 33.7564C40.4623 33.6832 40.5035 33.5838 40.5035 33.4803C40.5035 33.3767 40.4623 33.2773 40.3891 33.2041Z" fill="#A4C9FF"/>
<path d="M26.953 30.1687C26.9506 30.1685 26.9485 30.1682 26.9461 30.1682L26.9457 30.1687H20.0805C18.2031 30.1687 16.6813 31.6906 16.6813 33.568V41.8871H31.3297V33.568C31.3297 31.6906 29.8078 30.1687 27.9305 30.1687H26.953Z" fill="#A4C9FF"/>
<path d="M30.7645 20.3227C30.7502 20.3227 30.7363 20.3244 30.7221 20.3248V19.6959C30.7221 16.0199 27.715 13.0399 24.0055 13.0399C20.2961 13.0399 17.2889 16.0199 17.2889 19.6959V20.3248C17.2746 20.3246 17.2607 20.3227 17.2465 20.3227C16.1148 20.3227 15.1973 21.2318 15.1973 22.3533C15.1973 23.4748 16.1146 24.384 17.2465 24.384C17.3209 24.384 17.3941 24.3795 17.4664 24.3719C18.1596 27.3164 20.823 29.5108 24.0057 29.5108C27.1881 29.5108 29.8518 27.3166 30.5449 24.3719C30.6172 24.3795 30.6904 24.384 30.7648 24.384C31.8965 24.384 32.8141 23.4748 32.8141 22.3533C32.8137 21.2318 31.8961 20.3227 30.7645 20.3227Z" fill="#F9CFCF"/>
<path d="M20.6678 23.6035C20.4528 23.6033 20.2467 23.5178 20.0947 23.3659C19.9427 23.2139 19.8571 23.0078 19.8569 22.7928V21.4414C19.8571 21.2264 19.9427 21.0203 20.0947 20.8684C20.2467 20.7164 20.4528 20.6309 20.6678 20.6307C20.8828 20.6309 21.0888 20.7164 21.2408 20.8684C21.3928 21.0204 21.4783 21.2265 21.4786 21.4414V22.7928C21.4783 23.0077 21.3928 23.2138 21.2408 23.3658C21.0888 23.5178 20.8828 23.6033 20.6678 23.6035ZM27.3114 23.6035C27.0964 23.6033 26.8903 23.5178 26.7382 23.3659C26.5862 23.2139 26.5007 23.0078 26.5004 22.7928V21.4414C26.5007 21.2264 26.5862 21.0203 26.7382 20.8684C26.8903 20.7164 27.0964 20.6309 27.3114 20.6307C27.5263 20.6309 27.7324 20.7164 27.8844 20.8684C28.0363 21.0204 28.1218 21.2265 28.1221 21.4414V22.7928C28.1218 23.0077 28.0363 23.2138 27.8844 23.3658C27.7324 23.5178 27.5263 23.6033 27.3114 23.6035ZM24.312 26.5887H23.6989C23.6469 26.5887 23.5975 26.5785 23.5522 26.5602C23.1887 26.4992 22.8647 26.3395 22.6317 26.1043C22.3979 25.8686 22.269 25.5693 22.269 25.2619C22.269 25.1583 22.3101 25.059 22.3834 24.9857C22.4566 24.9125 22.556 24.8713 22.6596 24.8713C22.7632 24.8713 22.8626 24.9125 22.9358 24.9857C23.0091 25.059 23.0502 25.1583 23.0502 25.2619C23.0502 25.3901 23.1243 25.4916 23.1864 25.5543C23.3147 25.6836 23.5176 25.7727 23.7434 25.7984C23.7604 25.8004 23.777 25.8033 23.7934 25.8074H24.2186C24.2346 25.8033 24.251 25.8004 24.2676 25.7984C24.4932 25.7727 24.6961 25.6836 24.8246 25.5543C24.8868 25.4916 24.9608 25.3902 24.9608 25.2619C24.9608 25.1583 25.0019 25.059 25.0752 24.9857C25.1484 24.9125 25.2478 24.8713 25.3514 24.8713C25.455 24.8713 25.5544 24.9125 25.6276 24.9857C25.7009 25.059 25.742 25.1583 25.742 25.2619C25.742 25.5693 25.6131 25.8686 25.3793 26.1043C25.1448 26.3408 24.8182 26.5012 24.4522 26.5613C24.4084 26.5789 24.3614 26.5887 24.312 26.5887Z" fill="#3762CC"/>
<path d="M15.8764 8.7133C15.8764 4.29514 12.142 0.749241 7.65761 1.05979C3.77597 1.32834 0.674994 4.54416 0.536323 8.43264C0.45351 10.7539 1.40273 12.8545 2.96074 14.3129C4.52382 15.7762 5.93749 17.3914 7.08535 19.1989L7.5955 20.0022C7.82187 20.3586 8.33945 20.3658 8.57578 20.0158L9.33437 18.8922C10.4502 17.2391 11.81 15.7737 13.3004 14.4483C14.8807 13.043 15.8764 10.9946 15.8764 8.7133Z" fill="#6BDDDD"/>
<path d="M8.20392 14.1918C11.2296 14.1918 13.6824 11.739 13.6824 8.71326C13.6824 5.68756 11.2296 3.23474 8.20392 3.23474C5.17822 3.23474 2.7254 5.68756 2.7254 8.71326C2.7254 11.739 5.17822 14.1918 8.20392 14.1918Z" fill="#FFEA92"/>
<path d="M8.09046 20.6647H8.07659C7.91441 20.6627 7.75529 20.6203 7.6137 20.5412C7.47211 20.4621 7.35253 20.3488 7.26585 20.2117L6.7555 19.4084C5.69339 17.7361 4.36487 16.1627 2.69378 14.5983C1.85218 13.8101 1.1893 12.8507 0.749793 11.7848C0.310288 10.7188 0.104374 9.57103 0.145927 8.41877C0.291044 4.35412 3.57874 0.950407 7.63069 0.670133C9.89554 0.513493 12.052 1.27599 13.7037 2.8172C15.3326 4.33732 16.267 6.48635 16.267 8.71349C16.2664 9.85214 16.0249 10.9778 15.5584 12.0165C15.0919 13.0552 14.4109 13.9834 13.5602 14.7402C11.958 16.1649 10.6817 17.5945 9.65823 19.1108L8.89983 20.2344C8.81058 20.367 8.69006 20.4756 8.54891 20.5507C8.40776 20.6257 8.25031 20.6649 8.09046 20.6647ZM8.2094 1.43127C8.03538 1.43127 7.86038 1.43732 7.6846 1.44943C4.0262 1.70256 1.05765 4.77619 0.926591 8.4465C0.889059 9.4872 1.07502 10.5238 1.47193 11.4866C1.86885 12.4494 2.46751 13.3159 3.22757 14.0278C4.94749 15.6379 6.31722 17.2608 7.41507 18.9893L7.92522 19.7926C7.94226 19.8203 7.96611 19.8431 7.99448 19.859C8.02286 19.8749 8.05482 19.8832 8.08733 19.8832C8.11992 19.8847 8.15232 19.8775 8.18124 19.8624C8.21016 19.8473 8.23457 19.8249 8.25198 19.7973L9.01038 18.6736C10.0707 17.1027 11.3891 15.625 13.0407 14.1565C13.809 13.473 14.4241 12.6347 14.8455 11.6966C15.2669 10.7585 15.485 9.74187 15.4856 8.71349C15.4856 6.70217 14.6418 4.76134 13.1705 3.3883C11.8073 2.11584 10.0621 1.43127 8.2094 1.43127Z" fill="#3762CC"/>
<path d="M47.4688 8.7133C47.4688 4.29514 43.7344 0.749241 39.25 1.05979C35.3684 1.32854 32.2674 4.54416 32.1287 8.43264C32.0459 10.7539 32.9951 12.8545 34.5531 14.3129C36.1162 15.7762 37.5299 17.3914 38.6778 19.1989L39.1879 20.0022C39.4143 20.3586 39.9319 20.3658 40.1682 20.0158L40.9268 18.8922C42.0426 17.2391 43.4024 15.7737 44.8928 14.4483C46.4731 13.043 47.4688 10.9946 47.4688 8.7133Z" fill="#6BDDDD"/>
<path d="M39.7963 14.1918C42.822 14.1918 45.2748 11.739 45.2748 8.71326C45.2748 5.68756 42.822 3.23474 39.7963 3.23474C36.7706 3.23474 34.3178 5.68756 34.3178 8.71326C34.3178 11.739 36.7706 14.1918 39.7963 14.1918Z" fill="#FFEA92"/>
<path d="M39.6829 20.6646H39.669C39.5068 20.6627 39.3477 20.6202 39.2061 20.5411C39.0645 20.462 38.9449 20.3488 38.8583 20.2117L38.3479 19.4084C37.2858 17.7361 35.9573 16.1627 34.2862 14.5982C33.4446 13.8101 32.7817 12.8507 32.3422 11.7848C31.9027 10.7188 31.6968 9.57101 31.7383 8.41875C31.8833 4.3541 35.1711 0.950583 39.2231 0.670114C41.4872 0.513864 43.6446 1.27578 45.2961 2.81718C46.9252 4.3373 47.8594 6.48652 47.8594 8.71347C47.8588 9.85212 47.6173 10.9777 47.1507 12.0164C46.6842 13.0551 46.0033 13.9834 45.1526 14.7402C43.5504 16.1648 42.2741 17.5945 41.2506 19.1107L40.4922 20.2344C40.403 20.367 40.2825 20.4756 40.1413 20.5506C40.0002 20.6257 39.8427 20.6648 39.6829 20.6646ZM39.8018 1.43125C39.6278 1.43125 39.4528 1.4373 39.277 1.44941C35.6184 1.70254 32.6501 4.77617 32.519 8.44648C32.4815 9.48718 32.6674 10.5238 33.0643 11.4866C33.4613 12.4494 34.0599 13.3159 34.82 14.0277C36.5399 15.6379 37.9096 17.2607 39.0075 18.9893L39.5176 19.7926C39.5347 19.8203 39.5585 19.8431 39.5869 19.859C39.6153 19.8749 39.6472 19.8832 39.6797 19.8832C39.7123 19.8847 39.7447 19.8775 39.7737 19.8624C39.8026 19.8474 39.827 19.8249 39.8444 19.7973L40.6028 18.6736C41.6631 17.1027 42.9815 15.625 44.6331 14.1564C45.4014 13.4729 46.0164 12.6346 46.4378 11.6965C46.8592 10.7584 47.0774 9.74184 47.078 8.71347C47.078 6.70215 46.2342 4.76133 44.7629 3.38828C43.3997 2.11582 41.6544 1.43125 39.8018 1.43125Z" fill="#3762CC"/>
<path d="M10.1475 10.9935L9.77874 10.0244H6.63967L6.27092 11.0146C6.12698 11.401 6.00393 11.6617 5.90217 11.7967C5.80022 11.9318 5.63362 11.9996 5.40178 11.9996C5.2051 11.9996 5.03127 11.9275 4.8803 11.7836C4.72932 11.6396 4.65393 11.4764 4.65393 11.2937C4.65393 11.1883 4.67131 11.0797 4.70667 10.9672C4.74163 10.8549 4.79963 10.6986 4.88049 10.4984L6.85569 5.48436L7.05842 4.96561C7.13752 4.76366 7.2217 4.59608 7.31116 4.46249C7.40061 4.32909 7.51838 4.22108 7.66409 4.13866C7.80979 4.05624 7.98967 4.01483 8.20393 4.01483C8.42151 4.01483 8.60334 4.05604 8.74905 4.13866C8.88953 4.21642 9.01028 4.3254 9.10198 4.45721C9.19143 4.58729 9.26702 4.72675 9.32854 4.87596C9.38987 5.02518 9.46819 5.2244 9.56292 5.47382L11.5801 10.4564C11.7381 10.8355 11.8172 11.1113 11.8172 11.2834C11.8172 11.4625 11.7426 11.6266 11.5934 11.7758C11.4442 11.925 11.2643 11.9996 11.0535 11.9996C10.9307 11.9996 10.8254 11.9775 10.7375 11.9338C10.6496 11.8898 10.576 11.8303 10.5162 11.7547C10.4565 11.6791 10.3924 11.5633 10.324 11.407C10.2636 11.2699 10.2047 11.132 10.1475 10.9935ZM7.05061 8.84999H9.35745L8.19338 5.66346L7.05061 8.84999Z" fill="#A4C9FF"/>
<path d="M40.3611 12.574H38.0014C37.6608 12.574 37.4176 12.4977 37.2719 12.3449C37.1262 12.1922 37.0533 11.949 37.0533 11.6154V5.81113C37.0533 5.4705 37.1279 5.22558 37.2772 5.07636C37.4264 4.92714 37.6678 4.85253 38.0014 4.85253H40.5033C40.8721 4.85253 41.1914 4.87539 41.4619 4.92109C41.7322 4.96679 41.9746 5.05449 42.1887 5.18437C42.3713 5.29335 42.5328 5.43105 42.6733 5.59785C42.9554 5.93095 43.1087 6.35428 43.1051 6.79082C43.1051 7.56328 42.7188 8.12871 41.9463 8.48691C42.961 8.80996 43.4684 9.43847 43.4684 10.3725C43.4684 10.8043 43.3578 11.1934 43.1365 11.5393C42.9223 11.8792 42.6102 12.1463 42.2412 12.3055C42.0059 12.4039 41.7356 12.4732 41.4301 12.5135C41.125 12.5539 40.7684 12.574 40.3611 12.574ZM38.6178 6.02714V8.02324H40.0504C40.4402 8.02324 40.7412 7.98652 40.9537 7.91269C41.166 7.83886 41.3285 7.69843 41.441 7.49121C41.5287 7.34375 41.5727 7.17871 41.5727 6.99609C41.5727 6.60625 41.434 6.34746 41.1567 6.21914C40.8793 6.09101 40.4563 6.02695 39.8873 6.02695L38.6178 6.02714ZM40.2453 9.14511H38.6178V11.3994H40.2981C41.3549 11.3994 41.8834 11.0184 41.8834 10.2564C41.8834 9.8666 41.7465 9.58418 41.4725 9.40859C41.1985 9.233 40.7895 9.14511 40.2453 9.14511ZM27.9854 6.16992L27.983 6.16875C28.4354 5.82226 28.8088 5.3375 29.0391 4.73613C29.6873 3.04453 28.9713 1.09257 27.4399 0.376558C26.3465 -0.13477 25.1336 0.123042 24.2932 0.92773C24.1242 1.08945 23.85 1.09707 23.6774 0.938863C22.852 0.183003 21.6865 -0.0630907 20.6217 0.411714C19.0805 1.09863 18.3373 3.03027 18.9617 4.72578C19.1838 5.32851 19.5502 5.81757 19.9977 6.17011L19.9953 6.17128L23.36 8.94101C23.6863 9.20957 24.1701 9.21328 24.5008 8.94941L27.9854 6.16992Z" fill="#F9A7A7"/>
<path d="M24.0055 29.9014C20.7942 29.9014 18.027 27.8088 17.167 24.7733C15.8584 24.7315 14.8069 23.6619 14.8069 22.3531C14.8069 21.1354 15.7176 20.1246 16.8985 19.9565V19.6957C16.8985 15.8102 20.0868 12.649 24.0057 12.649C27.9247 12.649 31.1129 15.8102 31.1129 19.6957V19.9565C32.2938 20.1246 33.2045 21.1354 33.2045 22.3531C33.2045 23.6619 32.153 24.7315 30.8444 24.7733C29.9838 27.8088 27.2168 29.9014 24.0055 29.9014ZM17.4667 23.9813C17.5546 23.9814 17.64 24.0111 17.709 24.0658C17.7779 24.1205 17.8264 24.1968 17.8465 24.2824C18.5168 27.1307 21.0495 29.1201 24.0055 29.1201C26.9614 29.1201 29.494 27.1307 30.1645 24.2824C30.1863 24.1899 30.2411 24.1084 30.3187 24.0533C30.3962 23.9983 30.4912 23.9734 30.5858 23.9834C30.6446 23.9897 30.7041 23.9932 30.7647 23.9932C31.6791 23.9932 32.4231 23.2574 32.4231 22.3531C32.4231 21.4504 31.6819 20.7158 30.7698 20.7131C30.7594 20.7137 30.734 20.7151 30.7299 20.7151C30.678 20.7161 30.6264 20.7068 30.5781 20.6877C30.5298 20.6685 30.4858 20.6399 30.4487 20.6036C30.4116 20.5672 30.3821 20.5238 30.362 20.4759C30.3418 20.428 30.3315 20.3766 30.3315 20.3246V19.6957C30.3315 16.241 27.4938 13.4303 24.0055 13.4303C20.5172 13.4303 17.6795 16.241 17.6795 19.6957V20.3246C17.6796 20.3766 17.6693 20.4281 17.6492 20.476C17.6291 20.5239 17.5996 20.5673 17.5625 20.6037C17.5254 20.6401 17.4814 20.6687 17.433 20.6878C17.3847 20.7069 17.3331 20.7162 17.2811 20.7151C17.2747 20.7151 17.2487 20.7137 17.2422 20.7131C16.3319 20.7131 15.5879 21.4489 15.5879 22.353C15.5879 23.2571 16.3319 23.993 17.2463 23.993C17.3069 23.993 17.3665 23.9893 17.4252 23.9832C17.4391 23.9821 17.453 23.9813 17.4667 23.9813Z" fill="#3762CC"/>
<path d="M32.0199 19.194H30.7066C30.7195 19.3596 30.7262 19.527 30.7262 19.6959V20.3248C30.7404 20.3246 30.7543 20.3227 30.7686 20.3227C31.2992 20.3227 31.7812 20.5244 32.1451 20.8524V19.1832C32.1037 19.1901 32.0619 19.1937 32.0199 19.194ZM22.6012 19.183H15.641C15.5827 19.183 15.525 19.1715 15.4712 19.1492C15.4174 19.1269 15.3684 19.0943 15.3272 19.053C15.286 19.0118 15.2533 18.9629 15.231 18.9091C15.2087 18.8552 15.1973 18.7975 15.1973 18.7393V16.9633C15.1973 13.6168 17.91 10.9041 21.2564 10.9041H24.4869C24.7054 10.9041 24.9218 10.9472 25.1236 11.0308C25.3255 11.1144 25.5089 11.2369 25.6634 11.3915C25.818 11.546 25.9405 11.7294 26.0241 11.9312C26.1077 12.1331 26.1508 12.3495 26.1508 12.568V15.6332C26.1508 17.5938 24.5615 19.183 22.6012 19.183ZM32.3699 19.183H29.7006C27.74 19.183 26.1508 17.5938 26.1508 15.6332V12.568C26.1508 12.1267 26.3261 11.7037 26.6381 11.3916C26.9502 11.0796 27.3734 10.9043 27.8146 10.9043C30.5754 10.9043 32.8135 13.1424 32.8135 15.9031V18.7395C32.8135 18.7977 32.802 18.8554 32.7798 18.9092C32.7575 18.9631 32.7248 19.012 32.6836 19.0532C32.6424 19.0944 32.5935 19.127 32.5397 19.1493C32.4859 19.1716 32.4282 19.183 32.3699 19.183ZM15.8902 19.183V20.8154C16.2623 20.4968 16.7361 20.3219 17.226 20.3225C17.2402 20.3225 17.2541 20.3244 17.2684 20.3246V19.6957C17.2684 19.5229 17.277 19.3522 17.2904 19.183H15.8902Z" fill="#4671C6"/>
<path d="M32.1455 21.2428C32.0508 21.2428 31.957 21.2082 31.884 21.1424C31.5783 20.8662 31.1809 20.7133 30.7689 20.7133C30.7113 20.7195 30.6529 20.7129 30.5981 20.6938C30.5433 20.6747 30.4935 20.6437 30.4521 20.6029C30.4153 20.5666 30.3861 20.5233 30.3661 20.4755C30.3462 20.4278 30.3359 20.3766 30.3359 20.3248V19.6959C30.3359 19.5399 30.3297 19.3811 30.3176 19.2242C30.3133 19.1705 30.3203 19.1165 30.3379 19.0656C30.3556 19.0148 30.3836 18.9681 30.4202 18.9285C30.4568 18.889 30.5011 18.8575 30.5505 18.8359C30.5999 18.8144 30.6532 18.8033 30.707 18.8033H32.0203C32.0422 18.8033 32.0635 18.8006 32.0846 18.7973C32.1403 18.7884 32.1974 18.7917 32.2517 18.807C32.3061 18.8224 32.3565 18.8493 32.3994 18.8859C32.4424 18.9226 32.4769 18.9682 32.5005 19.0195C32.5241 19.0707 32.5364 19.1265 32.5363 19.183V20.8522C32.5363 20.9035 32.5262 20.9543 32.5066 21.0017C32.4869 21.0491 32.4581 21.0922 32.4218 21.1284C32.3856 21.1647 32.3425 21.1935 32.2951 21.2131C32.2476 21.2327 32.1968 21.2428 32.1455 21.2428ZM31.1168 19.9568C31.3375 19.9885 31.552 20.0502 31.7547 20.1397V19.5846H31.1158C31.1164 19.6217 31.1168 19.6588 31.1168 19.6959V19.9568ZM22.601 19.5736H15.641C15.4198 19.5733 15.2078 19.4853 15.0514 19.3289C14.895 19.1725 14.807 18.9605 14.8066 18.7393V16.9633C14.8066 13.4068 17.7 10.5135 21.2564 10.5135H24.4869C25.6197 10.5135 26.5414 11.4352 26.5414 12.5682V15.6332C26.5414 17.8061 24.7738 19.5736 22.601 19.5736ZM21.2564 11.2949C18.1309 11.2949 15.5879 13.8379 15.5879 16.9635V18.7395C15.5879 18.7688 15.6117 18.7926 15.641 18.7926H22.601C24.343 18.7926 25.7602 17.3754 25.7602 15.6334V12.5682C25.7598 12.2306 25.6255 11.9069 25.3868 11.6682C25.1481 11.4295 24.8245 11.2952 24.4869 11.2947L21.2564 11.2949Z" fill="#3762CC"/>
<path d="M32.3699 19.5736H29.7006C27.5278 19.5736 25.7602 17.8061 25.7602 15.6332V12.5682C25.7602 11.4354 26.6819 10.5135 27.8149 10.5135C30.7865 10.5135 33.2043 12.9311 33.2043 15.9029V18.7393C33.204 18.9605 33.116 19.1725 32.9596 19.3289C32.8032 19.4853 32.5911 19.5733 32.3699 19.5736ZM27.8149 11.2949C27.4773 11.2953 27.1536 11.4296 26.9149 11.6684C26.6761 11.9071 26.5418 12.2308 26.5414 12.5684V15.6334C26.5414 17.3754 27.9586 18.7926 29.7006 18.7926H32.3699C32.3992 18.7926 32.4231 18.7688 32.4231 18.7395V15.9031C32.4229 13.3621 30.3559 11.2949 27.8149 11.2949ZM15.8903 21.2061C15.7867 21.2059 15.6875 21.1646 15.6143 21.0914C15.5411 21.0182 15.4998 20.919 15.4996 20.8154V19.183C15.4996 19.0794 15.5408 18.9801 15.614 18.9068C15.6873 18.8335 15.7867 18.7924 15.8903 18.7924H17.2905C17.3444 18.7924 17.3977 18.8035 17.4472 18.8252C17.4966 18.8468 17.541 18.8784 17.5776 18.9181C17.6141 18.9577 17.6421 19.0045 17.6597 19.0554C17.6774 19.1064 17.6842 19.1605 17.6799 19.2143C17.6665 19.3745 17.6596 19.5352 17.6592 19.6959V20.3248C17.6592 20.3766 17.6489 20.4278 17.629 20.4755C17.609 20.5233 17.5798 20.5666 17.5429 20.6029C17.5061 20.6393 17.4624 20.6679 17.4144 20.6872C17.3664 20.7066 17.315 20.7161 17.2633 20.7154C17.249 20.7152 17.2348 20.7145 17.2205 20.7135C16.8299 20.7135 16.4453 20.8553 16.144 21.1127C16.0717 21.1742 15.9815 21.2061 15.8903 21.2061ZM16.2809 19.5736V20.1221C16.4721 20.042 16.6727 19.9865 16.878 19.957V19.6959C16.878 19.6557 16.8783 19.6149 16.8791 19.5738L16.2809 19.5736Z" fill="#3762CC"/>
<path d="M24.0055 29.5107C22.9468 29.5124 21.9026 29.2645 20.9577 28.7869V30.0195C20.9577 31.4482 22.1159 32.6065 23.5446 32.6065H24.4645C25.8932 32.6065 27.0514 31.4482 27.0514 30.0195V28.7879C26.107 29.2648 25.0635 29.5125 24.0055 29.5107ZM47.3768 28.4459C47.3548 28.3042 47.2788 28.1765 47.1647 28.0896C47.0506 28.0027 46.9073 27.9634 46.7649 27.9799L45.7069 28.1018L41.6897 28.425C41.3841 28.4496 41.0766 28.4186 40.7821 28.3336L40.0971 28.1359C40.0665 28.1272 40.039 28.1099 40.0177 28.0862C39.9965 28.0624 39.9823 28.0332 39.977 28.0017C39.9717 27.9703 39.9753 27.938 39.9875 27.9086C39.9997 27.8792 40.0199 27.8538 40.0459 27.8354L40.9747 27.1742C41.1905 27.0205 41.295 26.7434 41.2108 26.4922C41.1843 26.4111 41.1407 26.3366 41.0831 26.2737C41.0254 26.2109 40.9549 26.1611 40.8764 26.1277C40.7978 26.0944 40.7131 26.0782 40.6278 26.0803C40.5425 26.0825 40.4586 26.1028 40.3819 26.14L38.2356 27.1815C37.9326 27.3285 37.6772 27.5578 37.4984 27.8432C37.3197 28.1286 37.2249 28.4586 37.2248 28.7953V29.8969L37.1532 29.9678L39.1483 31.9629L39.2707 31.9428L46.392 29.3227L47.0477 29.041C47.1608 28.9924 47.2546 28.9076 47.3141 28.7998C47.3737 28.6921 47.3958 28.5676 47.3768 28.4459ZM0.642037 28.4459C0.664011 28.3042 0.740015 28.1765 0.854103 28.0896C0.968192 28.0027 1.1115 27.9634 1.25395 27.9799L2.31196 28.1018L6.32915 28.425C6.63472 28.4496 6.94222 28.4186 7.23676 28.3336L7.92172 28.1359C7.95235 28.1272 7.97988 28.1099 8.00113 28.0862C8.02238 28.0624 8.03649 28.0332 8.04184 28.0017C8.04719 27.9703 8.04355 27.938 8.03135 27.9086C8.01916 27.8792 7.99889 27.8538 7.9729 27.8354L7.04419 27.1742C6.82836 27.0205 6.72387 26.7434 6.80805 26.4922C6.83455 26.4111 6.8781 26.3366 6.93578 26.2737C6.99347 26.2109 7.06394 26.1611 7.14247 26.1277C7.22099 26.0944 7.30575 26.0782 7.39105 26.0803C7.47634 26.0825 7.56019 26.1028 7.63696 26.14L9.78325 27.1815C10.0862 27.3285 10.3417 27.5578 10.5204 27.8432C10.6992 28.1286 10.794 28.4586 10.794 28.7953V29.8969L10.8657 29.9678L8.87055 31.9629L8.74809 31.9428L1.627 29.3229L0.971334 29.0412C0.858178 28.9926 0.764411 28.9077 0.704795 28.7999C0.645179 28.6921 0.623101 28.5676 0.642037 28.4459Z" fill="#F9CFCF"/>
<path d="M39.1481 32.3537C39.0445 32.3537 38.9451 32.3125 38.8719 32.2393L36.8768 30.2442C36.8117 30.179 36.7718 30.0929 36.764 30.0012C36.7561 29.9094 36.7809 29.8179 36.834 29.7426V28.7955C36.834 27.9645 37.3172 27.193 38.0649 26.8301L40.2114 25.7887C40.3377 25.7274 40.4757 25.6937 40.616 25.6899C40.7564 25.6862 40.896 25.7124 41.0254 25.7668C41.1555 25.8218 41.2723 25.9039 41.3681 26.0076C41.4639 26.1113 41.5365 26.2342 41.5811 26.3682C41.717 26.774 41.5608 27.2365 41.201 27.4926L40.6457 27.8877L40.8901 27.9582C41.1401 28.0303 41.3991 28.0561 41.658 28.0354L45.6752 27.7121L46.72 27.5916C46.9628 27.5628 47.2073 27.6296 47.4018 27.7778C47.5963 27.926 47.7256 28.144 47.7623 28.3858C47.7947 28.5931 47.7571 28.8053 47.6555 28.9889C47.5539 29.1726 47.3941 29.3171 47.2012 29.3998L46.5457 29.6815C46.5393 29.6842 46.5329 29.6868 46.5264 29.6893L39.4051 32.3094C39.3818 32.318 39.3577 32.3243 39.3332 32.3283L39.2108 32.3485C39.1901 32.352 39.1691 32.3537 39.1481 32.3537ZM37.6153 29.8778L39.266 31.5285L46.2473 28.96L46.8934 28.6824C46.9269 28.6681 46.9548 28.643 46.9724 28.6111C46.9901 28.5792 46.9967 28.5423 46.991 28.5063V28.5061C46.9846 28.4641 46.9621 28.4262 46.9283 28.4005C46.8945 28.3747 46.852 28.3631 46.8098 28.368L45.7516 28.4899L41.7211 28.8145C41.3686 28.8429 41.0139 28.8073 40.6741 28.7092L39.9891 28.5115C39.7807 28.4514 39.6287 28.2813 39.5922 28.0676C39.5557 27.8539 39.6428 27.643 39.8196 27.5174L40.7483 26.8563C40.8291 26.7988 40.8678 26.6979 40.8407 26.6164C40.8317 26.5876 40.8166 26.561 40.7963 26.5387C40.7759 26.5164 40.751 26.4987 40.7231 26.4871C40.696 26.4755 40.6668 26.47 40.6373 26.4707C40.6079 26.4715 40.579 26.4786 40.5526 26.4916L38.4061 27.533C38.1697 27.6488 37.9704 27.8284 37.8306 28.0515C37.6909 28.2746 37.6164 28.5323 37.6155 28.7955L37.6153 29.8778ZM8.87073 32.3537C8.84984 32.3537 8.82874 32.352 8.80765 32.3487L8.68538 32.3285C8.66095 32.3245 8.63695 32.3181 8.6137 32.3096L1.49222 29.6895C1.48566 29.6872 1.47921 29.6845 1.47288 29.6817L0.817219 29.4C0.624386 29.3173 0.464574 29.1727 0.362977 28.9891C0.261379 28.8055 0.223773 28.5933 0.256086 28.386C0.293364 28.1444 0.42282 27.9266 0.617246 27.7785C0.811671 27.6305 1.05592 27.5635 1.29866 27.5918L2.35667 27.7137L6.36058 28.0356C6.6192 28.0566 6.8795 28.0304 7.12874 27.9582L7.37308 27.8877L6.818 27.4926C6.45823 27.2363 6.30198 26.774 6.43792 26.3682C6.52913 26.0959 6.73167 25.8768 6.99359 25.7668C7.2555 25.6569 7.55238 25.6647 7.80765 25.7887L9.95394 26.8301C10.7018 27.193 11.1848 27.9645 11.1848 28.7955V29.7426C11.2379 29.8178 11.2628 29.9094 11.255 30.0012C11.2471 30.093 11.2071 30.179 11.142 30.2442L9.14691 32.2393C9.07364 32.3125 8.97432 32.3537 8.87073 32.3537ZM1.77171 28.96L8.75277 31.5285L10.4035 29.8778V28.7953C10.4026 28.5321 10.328 28.2744 10.1883 28.0513C10.0486 27.8282 9.84932 27.6486 9.61292 27.5328L7.46663 26.4914C7.44022 26.4784 7.4113 26.4713 7.38187 26.4705C7.35244 26.4697 7.32319 26.4753 7.29613 26.4869C7.25667 26.5033 7.20433 26.5393 7.17855 26.6162C7.1512 26.6977 7.19007 26.7985 7.27093 26.8561L8.19945 27.517C8.28563 27.5777 8.35277 27.6616 8.39302 27.759C8.43328 27.8564 8.44499 27.9632 8.42679 28.067C8.40962 28.1711 8.36318 28.2681 8.2929 28.3467C8.22261 28.4253 8.1314 28.4823 8.02991 28.511L7.34495 28.7086C7.00507 28.8066 6.65027 28.8423 6.29769 28.8139L2.2805 28.4906L1.20902 28.3676C1.16676 28.3624 1.12414 28.3739 1.09028 28.3997C1.05641 28.4255 1.03397 28.4636 1.02777 28.5057C1.02214 28.5417 1.02869 28.5786 1.04638 28.6105C1.06406 28.6424 1.09188 28.6675 1.12542 28.6819L1.77171 28.96ZM16.6813 40.8129C16.5777 40.8129 16.4783 40.7718 16.4051 40.6985C16.3318 40.6252 16.2907 40.5259 16.2907 40.4223V36.4199C16.2907 36.3163 16.3318 36.217 16.4051 36.1437C16.4783 36.0705 16.5777 36.0293 16.6813 36.0293C16.7849 36.0293 16.8842 36.0705 16.9575 36.1437C17.0308 36.217 17.0719 36.3163 17.0719 36.4199V40.4223C17.0719 40.5259 17.0308 40.6252 16.9575 40.6985C16.8842 40.7718 16.7849 40.8129 16.6813 40.8129ZM31.3297 40.8129C31.2261 40.8129 31.1268 40.7718 31.0535 40.6985C30.9802 40.6252 30.9391 40.5259 30.9391 40.4223V36.4199C30.9391 36.3163 30.9802 36.217 31.0535 36.1437C31.1268 36.0705 31.2261 36.0293 31.3297 36.0293C31.4333 36.0293 31.5327 36.0705 31.6059 36.1437C31.6792 36.217 31.7203 36.3163 31.7203 36.4199V40.4223C31.7203 40.5259 31.6792 40.6252 31.6059 40.6985C31.5327 40.7718 31.4333 40.8129 31.3297 40.8129Z" fill="#3762CC"/>
<path d="M31.3297 42.2776H16.6813C16.5777 42.2776 16.4783 42.2364 16.4051 42.1632C16.3318 42.0899 16.2906 41.9906 16.2906 41.887V41.1862C15.5723 41.5086 14.6969 41.3756 14.1076 40.7862L7.35354 34.0327C7.20608 33.8852 7.12463 33.6891 7.12463 33.4803C7.12463 33.2715 7.20608 33.0754 7.35354 32.9278L10.8748 29.4065C11.0214 29.2602 11.2201 29.1781 11.4272 29.1781C11.6343 29.1781 11.8329 29.2602 11.9795 29.4065L15.4824 32.9092L17.1418 31.1772C17.866 30.2879 18.9362 29.7782 20.0805 29.7782H20.567V28.787C20.567 28.7202 20.5841 28.6546 20.6167 28.5963C20.6492 28.538 20.6962 28.4891 20.753 28.4541C20.8099 28.4191 20.8748 28.3993 20.9415 28.3966C21.0082 28.3938 21.0744 28.4082 21.134 28.4383C22.0281 28.8907 22.9942 29.1202 24.0055 29.1202C25.016 29.1202 25.9817 28.8911 26.8752 28.4393C26.9348 28.4092 27.001 28.3949 27.0677 28.3977C27.1344 28.4004 27.1992 28.4203 27.256 28.4552C27.3129 28.4902 27.3598 28.5391 27.3924 28.5974C27.4249 28.6556 27.442 28.7212 27.442 28.7879V29.7784H27.9303C28.4318 29.7769 28.9286 29.8757 29.3914 30.069C29.8542 30.2623 30.2737 30.5462 30.6252 30.9039L32.5369 32.9086L36.0391 29.4065C36.1857 29.2602 36.3843 29.1781 36.5914 29.1781C36.7985 29.1781 36.9972 29.2602 37.1438 29.4065L40.6653 32.928C40.7381 33.0003 40.7958 33.0864 40.8351 33.1812C40.8744 33.276 40.8945 33.3777 40.8942 33.4803C40.8944 33.583 40.8743 33.6847 40.835 33.7795C40.7957 33.8743 40.738 33.9604 40.6653 34.0329L33.9112 40.7866C33.7302 40.9685 33.515 41.1128 33.278 41.211C33.0409 41.3092 32.7867 41.3594 32.5301 41.3586C32.2508 41.3591 31.9746 41.2996 31.7203 41.184V41.8873C31.7202 41.9909 31.679 42.0901 31.6058 42.1633C31.5325 42.2365 31.4332 42.2776 31.3297 42.2776ZM17.0719 41.4963H30.9391V40.4143C30.9391 40.3371 30.962 40.2615 31.0049 40.1973C31.0479 40.1331 31.1089 40.083 31.1802 40.0535C31.2516 40.0239 31.3301 40.0162 31.4059 40.0313C31.4817 40.0463 31.5513 40.0835 31.6059 40.1381L31.7016 40.2338C31.9229 40.4551 32.2172 40.577 32.5303 40.577C32.8434 40.577 33.1375 40.4551 33.3588 40.2338L40.1131 33.4801L36.5918 29.9586L32.9483 33.6022C32.8356 33.7149 32.6823 33.7707 32.527 33.7737C32.4488 33.773 32.3716 33.7566 32.3 33.7254C32.2284 33.6942 32.1637 33.6489 32.11 33.5922L30.0715 31.4547C29.7924 31.1702 29.4592 30.9444 29.0915 30.7906C28.7238 30.6368 28.3291 30.5581 27.9305 30.5592H27.044C26.9908 30.5592 26.9382 30.5483 26.8894 30.5273C26.8405 30.5062 26.7965 30.4754 26.76 30.4367C26.7235 30.398 26.6953 30.3523 26.6771 30.3023C26.6589 30.2524 26.6511 30.1992 26.6541 30.1461L26.6571 30.1004C26.6588 30.0735 26.661 30.0467 26.661 30.0192V29.3926C25.8197 29.7303 24.9293 29.901 24.0055 29.901C23.0811 29.901 22.1901 29.7301 21.3485 29.392V30.0192C21.3485 30.0467 21.3506 30.0735 21.3524 30.1004L21.3553 30.1461C21.3584 30.1992 21.3505 30.2524 21.3323 30.3023C21.3141 30.3523 21.2859 30.398 21.2494 30.4367C21.2129 30.4754 21.1689 30.5062 21.1201 30.5273C21.0712 30.5483 21.0186 30.5592 20.9655 30.5592H20.0807C19.168 30.5592 18.3147 30.968 17.7393 31.6809C17.7323 31.6894 17.725 31.6977 17.7174 31.7057L15.9088 33.5936C15.855 33.6501 15.7903 33.6952 15.7187 33.7262C15.647 33.7572 15.5699 33.7735 15.4918 33.7741C15.3321 33.7721 15.1836 33.7147 15.0715 33.6024L11.4278 29.9586L7.90627 33.4801L14.6604 40.2336C14.8803 40.4531 15.1784 40.5764 15.4891 40.5764C15.7998 40.5764 16.0978 40.4531 16.3178 40.2336L16.4055 40.1459C16.4601 40.0912 16.5297 40.054 16.6055 40.0388C16.6813 40.0237 16.7599 40.0314 16.8313 40.061C16.9027 40.0906 16.9637 40.1407 17.0066 40.205C17.0495 40.2693 17.0724 40.3448 17.0723 40.4221V41.4963H17.0719Z" fill="#3762CC"/>
</svg>
